<svg xmlns="http://www.w3.org/2000/svg" width="300.097" height="390.656"><path d="M30.274 390.019c1.53-14.462 3.638-30.893 5.49-41.994-10.13-3.32-16.04-13.89-23.965-21.001 14.62-58.961 15.816-74.025 33.576-99.858l-1.964-2.922C.059 218.3 3.352 201.651.607 198.24c-.792-9.197 2.303-13.43 5.267-17.832 10.838-33.858 28.349-63.257 47.007-91.536 4.4-4.8 27.534-6.27 45.163-8.321 5.063-2.43 8.796-5.662 12.115-9.142l3.554.16 3.291-4.623c1.58-.568 3.16-.798 4.74-.66 1.088-5.167.813-6.231.922-8.454-4.673-7.459-3.208-15.48.527-22.587 4.307-21.602 9.135-32.589 41.345-34.74 12.187.796 28.346 13.934 27.124 32.097-1.553 5.657-2.22 11.187-6.057 17.171l-5.794 12.549c.28 2.059.335 3.001.264 3.302l-3.819 3.698c-.556 8.907-1.313 8.126-5.27 11.46-6.792 5.651-11.943 10.408-16.455 17.203l-.79.396v.529c12.26 8.65 22.76 18.006 33.312 27.342l-3.95 55.74 13.85-21.6c.62-3.994 2.587-4.836 4.19-6.534.765-2.736.06-4.981-.133-7.397 5.4-4.008 10.312-6.551 15.01-8.454l.081-2.89c-5.079-8.216-8.828-16.275-7.98-23.791.277-2.833 1.577-8.567-.922-11.888l-.263-2.113c-2.814-19.161 2.618-34.872 32.259-41.08 37.68 4.006 36.046 18.405 36.868 33.022 1.574 2.868 3.235 5.65 4.477 8.85l.658 6.737-2.107-6.737-.526 6.208c2.641 10.423 2.518 20.484-2.897 29.852l-1.844 1.717.395 5.416c6.167 2.669 8.189 2.73 10.393 5.163 3.92 4.328 10.288 6.281 14.098 15.046 2.998 9.3-2.863 25.162.264 32.89-4.609 19.913-.333 18.632-1.185 30.644-1.962 6.872-2.912 7.934-2.239 13.869-2.037 13.565 2.035 11.568 2.478 22.076.21 1.923.028 3.152-.908 4.647-6.34 10.053-8.153 10.452-10.4 11.779-1.097.965-1.94.934-3.246.787-13.856-1.551-17.504-1.45-22.158-1.512l5.003 35.003-3.818 20.473-2.239 31.04-7.11 26.946-94.575.037c-.192-11.17 6.823-56.45 9.979-82.757.178-1.484-3.19-.852-3.049-2.204.777-7.405 2.832-4.529 3.832-15.117.156-1.645-5.107 1.92-5.338 1.767-1.511-.993-1.973-3.994-2.243-6.707-.093-.93-2.198-.707-2.084-.007 1.408 8.616 1.183 41.695-1.542 66.751-.122 2.686-3.087 2.587-3.166 5.211-.472 15.724-2.618 21.31-4.313 33.104z" stroke="#000" stroke-width=".996"/><path d="M117.385 67.367c-.814 2.922-.652 5.286.281 7.21 6.33 8.266 12.677 16.527 17.79 25.28 3.02.845 4.387.45 5.43-.187l2.81-1.592c3.46-.142 4.953-.003 6.741.094l-.093 5.243-.75 50.187-5.336 54.306 7.774 51.344c-7.799 4.917-16.724 4.198-25.086 6.298l-7.76 1.237c-3.911.868-8.357-.406-11.779-1.008-.065-1.574 10.451-33.486 10.389-35.061-2.407-61.063-2.282-122.839-6.684-158.856l2.622.093 3.277-4.681z" fill="#fff" stroke="#000"/><path d="M123.284 109.502c2.502-1.508 5.239-3.487 8.24-5.993 1.525 1.484 3.537 1.804 8.052.187l3.745 2.81c-3.095 1.343-5.178 5.218-7.303 8.988.426 1.607.483 5.107 1.726 8.532 1.367 3.763 1.637 8.965 2.768 14.127l2.622 68.913 2.817 63.923-8.607 16.023-11.155-14.979-2.156-68.713.75-75.467c.964-8.95 2.823-15.939-1.499-18.351z" fill="red" stroke="#000"/><path d="M195.568 238.713c13.004-39.715 9.685-37.45 52.808-98.875-1.627-.215-2.685-.145-5.615-1.012l-12.362 10.844-3.371 10.954c-1.888-.373-2.705.409-3.603.695l-.056 3.03c.175.395-.022.752-.1 1.055l-7.29 10.389 2.622-10.862.535-21.554c-.193-.37-1.363-2.107-3.322-4.949-5.64 1.458-10.068 4.936-14.698 8.078.091 9.775.143 8.952.927 11.785 2.472-2.178 4.547-3.305 7.018-4.105 1.835 1.854 2.888 3.708 3.31 5.561-16.571 10.03-15.067 18.932-32.441 37.341 6.47 26.287 10.58 23.371 15.638 41.625z" fill="#fff" stroke="#000"/><path d="M207.472 101.22l-.794 6.62c4.397 4.512 9.64 7.049 16.155 6.621l2.118-4.767 3.443.662c.344 3.334.664 6.595 2.383 6.489 6.678 2.713 14.202 4.312 17.48-1.457l-.051-1.208 3.163-.098 1.39-.68-4.768-.265-1.324-1.06-18.273-2.515c-1.009-.288-2.434-.35-3.477-.706-5.663-1.933-11.63-5.4-17.445-7.636z" fill="none" stroke="#fff"/><path d="M124.033 243.957l13.858-7.678 93.631 10.487-21.535 9.363-9.177-1.3c-5.189-2.544-15.482.394-18.076-3.087-6.09-8.172-14.215-8.01-18.734-6.49-3.807 1.282.455 6.037-6.326 3.469z" fill="#fff" stroke="#000"/><path d="M118.509 203.133c9.04 2.216 1.934 1.998 24.719 5.244 4.619 4.261 8.395 9.096 13.014 13.857 3.091 11.896 3.171 6.87 7.116 18.071-2.004-.019-3.788-.64-6.741-.749-1.003-3.2-2.882-6.865-4.869-11.236-2.302-.908-4.916-3.38-7.452-5.456-.813-.673-.796-.765-.73.297 1.24 1.33.478 7.333.692 11.058-2.014 1.205-2.648 1.66-8.28 1.533-.171-.004-.008-1.285-.19-1.29-.15-.004-.657 1.301-.815 1.296-1.611-.051-3.15-.115-5.642-.25-.166-.01-.096-1.012-.378-1.021-.301-.01-.406 1.015-.593 1.004-1.757-.099-2.96-.196-5.227-.337-1.089.036-1.656-.142-1.862-1.187l-1.59-4.26c-.313-1.275-.592-1.41-1.758-1.78l-8.496-2.697c1.41-8.216.119-16.63 9.082-22.097z" stroke="#000"/></svg>