<svg height="1089.187" version="1.0" width="210mm" xmlns="http://www.w3.org/2000/svg" xmlns:xlink="http://www.w3.org/1999/xlink"><defs><radialGradient cx="-364.042" cy="477.585" fx="-364.042" fy="477.585" gradientTransform="matrix(1 0 0 .625 0 177.71)" gradientUnits="userSpaceOnUse" id="g" r="54.444" xlink:href="#a"/><radialGradient cx="603.969" cy="289.373" fx="603.969" fy="289.373" gradientTransform="matrix(1 0 0 .83449 0 47.896)" gradientUnits="userSpaceOnUse" id="e" r="49.09" xlink:href="#b"/><radialGradient cx="603.969" cy="289.373" fx="603.969" fy="289.373" gradientTransform="matrix(1 0 0 .83449 0 47.896)" gradientUnits="userSpaceOnUse" id="f" r="49.09" xlink:href="#b"/><radialGradient cx="-364.042" cy="477.585" fx="-364.042" fy="477.585" gradientTransform="matrix(1 0 0 .625 0 177.71)" gradientUnits="userSpaceOnUse" id="h" r="54.444" xlink:href="#a"/><radialGradient cx="-364.042" cy="477.585" fx="-364.042" fy="477.585" gradientTransform="matrix(1 0 0 .625 0 177.71)" gradientUnits="userSpaceOnUse" id="i" r="54.444" xlink:href="#a"/><radialGradient cx="603.969" cy="289.373" fx="603.969" fy="289.373" gradientTransform="matrix(1 0 0 .83449 0 47.896)" gradientUnits="userSpaceOnUse" id="j" r="49.09" xlink:href="#b"/><radialGradient cx="603.969" cy="289.373" fx="603.969" fy="289.373" gradientTransform="matrix(1 0 0 .83449 0 47.896)" gradientUnits="userSpaceOnUse" id="k" r="49.09" xlink:href="#b"/><radialGradient cx="603.969" cy="289.373" fx="603.969" fy="289.373" gradientTransform="matrix(1 0 0 .83449 0 47.896)" gradientUnits="userSpaceOnUse" id="l" r="49.09" xlink:href="#b"/><radialGradient cx="603.969" cy="289.373" fx="603.969" fy="289.373" gradientTransform="matrix(1 0 0 .83449 0 47.896)" gradientUnits="userSpaceOnUse" id="m" r="49.09" xlink:href="#b"/><radialGradient cx="603.969" cy="289.373" fx="603.969" fy="289.373" gradientTransform="matrix(1 0 0 .83449 0 47.896)" gradientUnits="userSpaceOnUse" id="n" r="49.09" xlink:href="#b"/><radialGradient cx="-307.211" cy="521.823" fx="-307.211" fy="521.823" gradientTransform="matrix(1 0 0 .98077 0 10.035)" gradientUnits="userSpaceOnUse" id="p" r="56.649" spreadMethod="reflect" xlink:href="#c"/><radialGradient cx="649.602" cy="428.939" fx="649.602" fy="428.939" gradientTransform="matrix(1 0 0 .97953 0 8.78)" gradientUnits="userSpaceOnUse" id="q" r="13.184" xlink:href="#b"/><linearGradient id="d"><stop offset="0" stop-color="#544be0" stop-opacity=".996"/><stop offset="1" stop-color="#e92916" stop-opacity=".996"/></linearGradient><linearGradient id="c"><stop offset="0" stop-color="#feff5e" stop-opacity=".996"/><stop offset="1" stop-color="#f5ed00"/></linearGradient><linearGradient id="b"><stop offset="0" stop-color="#fff" stop-opacity=".857"/><stop offset="1" stop-color="#fff" stop-opacity="0"/></linearGradient><linearGradient id="a"><stop offset="0" stop-color="#fff"/><stop offset="1" stop-color="#f6f6f6"/></linearGradient><linearGradient gradientTransform="matrix(1 -.036 .09109 1 925.546 -102.868)" gradientUnits="userSpaceOnUse" id="o" spreadMethod="reflect" x1="-503.828" x2="-480.83" xlink:href="#d" y1="650.642" y2="650.817"/></defs><path d="M664.069 782.788a281.871 126.713 0 11-563.742 0 281.871 126.713 0 11563.742 0z" fill="#c9c9c9" fill-opacity=".98" fill-rule="evenodd"/><path d="M275.354 690.887c.421 1.933-127.152 56.816-126.605 70.507.443 11.08 31.32 9.584 86.25-9.282-23.734 33.602-26.823 85.967-19.146 90.958 8.512 5.535 47.723-29.764 69.388-73.201 23.578 24.664 61.737 77.424 73.063 70.268 12.023-7.597-30.672-87.167-39.66-114.706 2.916-2.377 10.556-16.762 9.193-17.843l-52.483-16.7zm249.201 7.97c-.511 1.91-.837 3.507-.977 4.765 30.976 9.593 109.052 35.078 107.87 48.728-.957 11.048-46.913 1.607-86.534 4.102 22.147 34.669 22.799 87.12 14.899 91.75-8.76 5.133-46.29-31.95-65.913-76.347-24.698 23.543-65.267 74.472-76.248 66.797-11.657-8.147 34.689-85.647 44.946-112.739-2.802-2.51-9.765-17.234-8.353-18.25l70.31-8.806z" fill="#898989" fill-opacity=".797" fill-rule="evenodd"/><path d="M504.516 717.758a121.86 59.253 0 11-243.721 0 121.86 59.253 0 11243.721 0z" fill="#898989" fill-opacity=".797" fill-rule="evenodd"/><path d="M264.11 690.887c.422 1.933-122.317 49.083-121.77 62.774.442 11.08 39.054 7.65 81.416-1.55-23.734 33.603-26.823 85.968-19.146 90.96 8.512 5.534 47.724-29.765 69.388-73.202 23.578 24.664 61.737 77.424 73.063 70.268 12.023-7.597-30.672-87.167-39.66-114.706 2.916-2.377 10.556-16.762 9.193-17.843l-52.483-16.7zm249.202 7.97c-.511 1.91-.837 3.507-.977 4.765 30.976 9.593 109.052 35.078 107.87 48.728-.957 11.048-46.913 1.607-86.534 4.102 22.147 34.669 22.799 87.12 14.899 91.75-8.76 5.133-46.29-31.95-65.913-76.347-24.698 23.543-65.267 74.472-76.248 66.797-11.657-8.147 34.689-85.647 44.946-112.739-2.802-2.51-9.765-17.234-8.353-18.25l70.31-8.806z" stroke-width="3.748" fill="#fff101" fill-rule="evenodd" stroke="#000"/><path d="M651.559 289.373a47.59 39.465 0 11-95.18 0 47.59 39.465 0 1195.18 0z" transform="matrix(.2823 -.15318 .7368 1.35792 132.672 479.925)" fill="url(#e)" fill-rule="evenodd"/><path d="M651.559 289.373a47.59 39.465 0 11-95.18 0 47.59 39.465 0 1195.18 0z" transform="matrix(-.2823 -.15318 -.7368 1.35792 621.855 473.158)" fill="url(#f)" fill-rule="evenodd"/><path d="M604.082 499.038a221.29 264.978 0 11-442.58 0 221.29 264.978 0 11442.58 0z" fill-rule="evenodd"/><path d="M514.852 191.306a132.06 135.553 0 11-264.12 0 132.06 135.553 0 11264.12 0z" fill-rule="evenodd"/><path d="M230.07 434.267a181.134 58.538-45.035 11-84.772-80.79 181.134 58.538-45.035 1184.773 80.79z" fill-rule="evenodd"/><path d="M538.45 436.442a168.34 54.21 48.663 1079.031-74.3 168.34 54.21 48.663 10-79.03 74.3z" fill-rule="evenodd"/><path d="M521.71 534.841a138 197.3 0 11-276 0 138 197.3 0 11276 0z" fill="#fff" fill-rule="evenodd"/><g transform="translate(944.196 -612.902) scale(1.67857)" fill="url(#g)" fill-rule="evenodd"><path d="M-340.277 473.892a23.139 34.028 0 11-46.277 0 23.139 34.028 0 1146.277 0z" fill="url(#h)"/><path d="M-340.277 473.892a23.139 34.028 0 11-46.277 0 23.139 34.028 0 1146.277 0z" transform="translate(62.61)" fill="url(#i)"/></g><path d="M359.108 209.249a22.28 21.957 0 11-44.56 0 22.28 21.957 0 1144.56 0zm98.034 0a22.28 21.957 0 11-44.56 0 22.28 21.957 0 1144.56 0z" fill-rule="evenodd"/><path d="M470.948 252.01c-24.593 11.218-45.133 18.998-84.203 18.435-34.836-.501-53.316-2.268-82.206-16.817 29.297 45.208 40.58 64.057 83.089 64.057 43.14 0 61.895-29.578 83.32-65.675z" fill="#fff101" fill-rule="evenodd" stroke="#000" stroke-width="1.776" stroke-linecap="round"/><path d="M295.61 234.406c26.72 31.417 48.852 55.075 53.64 63.034 8.476 14.089 21.343 76.141 39.129 76.575 17.785.433 28.092-58.33 37.402-71.985 5.382-7.894 13.478-28.045 58.234-64.638-64.124 28.044-69.87-8.188-94.302-8.243-28.608-.064-44.96 35.648-94.103 5.257z" fill="#fff101" fill-rule="evenodd" stroke="#000" stroke-width="3.748"/><path d="M340.648 202.576a9.667 10.633 0 11-19.333 0 9.667 10.633 0 1119.333 0zm97.892.282a9.667 10.633 0 11-19.333 0 9.667 10.633 0 1119.334 0z" fill="#fff" fill-opacity=".725" fill-rule="evenodd" stroke="#000" stroke-width="3.748" stroke-linecap="round"/><path d="M651.559 289.373a47.59 39.465 0 11-95.18 0 47.59 39.465 0 1195.18 0z" transform="matrix(1.21875 0 0 1.06551 -398.647 -208.989)" fill="url(#j)" fill-rule="evenodd"/><path d="M651.559 289.373a47.59 39.465 0 11-95.18 0 47.59 39.465 0 1195.18 0z" transform="matrix(.29568 -.62252 2.14546 2.69236 -209.196 11.363)" fill="url(#k)" fill-rule="evenodd"/><path d="M651.559 289.373a47.59 39.465 0 11-95.18 0 47.59 39.465 0 1195.18 0z" transform="matrix(-.23323 -.64851 -2.39907 2.46906 998.208 81.044)" fill="url(#l)" fill-rule="evenodd"/><path d="M651.559 289.373a47.59 39.465 0 11-95.18 0 47.59 39.465 0 1195.18 0z" transform="matrix(2.47813 0 0 3.73541 -1220.17 -543.682)" fill="url(#m)" fill-rule="evenodd"/><path d="M651.559 289.373a47.59 39.465 0 11-95.18 0 47.59 39.465 0 1195.18 0z" transform="matrix(.94072 0 0 .74886 -177.767 72.104)" fill="url(#n)" fill-rule="evenodd"/><path d="M373.87 281.802a3.343 4.806 0 11-6.686 0 3.343 4.806 0 116.686 0zm38.103.418a3.343 4.806 0 11-6.686 0 3.343 4.806 0 116.686 0z" fill-rule="evenodd"/><path d="M400.954 497.476l98.047-3.53L511.995 636.6l-18.466.406-2.453-24.738-12.362-.073 2.102 25.269-12.572.452-2.36-23.707-11.587-.1 1.996 24.108-13.357.352c-1.563-5.547-1.776-24.749-3.074-24.458l-14.787.274 2.137 25.008-13.287.479-12.97-142.396z" fill="url(#o)" fill-rule="evenodd" stroke="#505050" stroke-width="1.002" stroke-linecap="round" transform="translate(-116.896 -177.565) scale(1.24922)"/><g fill-rule="evenodd" stroke="#505050" stroke-linecap="round"><path d="M-250.562 521.823a56.649 55.56 0 11-113.298 0 56.649 55.56 0 11113.298 0z" transform="matrix(1.43973 -.05182 .1337 1.4677 815.766 -331.657)" fill="#ffdd1e"/><path d="M-250.562 521.823a56.649 55.56 0 11-113.298 0 56.649 55.56 0 11113.298 0z" transform="matrix(1.24922 -.04497 .11379 1.24922 767.626 -215.54)" fill="url(#p)"/></g><text style="text-align:center;line-height:100%" x="-298.496" y="555.701" font-size="72" font-weight="700" text-anchor="middle" font-family="Bell MT" transform="matrix(1.24922 -.04497 .11379 1.24922 755.623 -227.392)"><tspan x="-298.496" y="555.701">#1</tspan></text><path d="M662.286 428.939a12.684 12.414 0 11-25.369 0 12.684 12.414 0 1125.369 0z" transform="matrix(4.04003 0 0 3.58472 -2200.989 -1109.205)" fill="url(#q)" fill-rule="evenodd"/></svg>