<svg height="512" viewBox="0 0 64 64" width="512" xmlns="http://www.w3.org/2000/svg"><path d="M21 16v7h-6v2.67a1.336 1.336 0 01-2.4.8L10 23H3c-.55 0-1-.45-1-1V10c0-.55.45-1 1-1h18.75c-.48 1.24-.75 2.59-.75 4z" fill="#ffeaa7"/><path d="M43.33 59.56A2.814 2.814 0 0140.54 62H23.46c-1.41 0-2.6-1.04-2.79-2.44L20.46 58h23.08z" fill="#aab2bd"/><path d="M20.13 55.51l-1.11-8.32c-.01-.13-.02-.25-.02-.38 0-1.55 1.26-2.81 2.81-2.81h20.38c.77 0 1.48.32 1.99.82.5.51.82 1.22.82 1.99 0 .13-.01.25-.02.38l-1.11 8.32-.33 2.49H20.46z" fill="#ccd1d9"/><path d="M42 44H21.81C20.26 44 19 45.26 19 46.81c0 .13.01.25.02.38l1.11 8.32-1.68-.97a8.813 8.813 0 01-3.26-3.24A8.771 8.771 0 0114 46.87c0-.58.06-1.16.17-1.73L15.8 37l.01-.04c.33-1.64 1.1-3.1 2.19-4.27a8.77 8.77 0 014.67-2.63c1.55 3.02 4.1 5.51 7.33 6.94v1c0 1.1.9 2 2 2s2-.9 2-2v-1c3.23-1.43 5.78-3.92 7.33-6.94a8.79 8.79 0 016.6 5.91c.11.32.19.65.26.99l1.64 8.18c.11.57.17 1.15.17 1.73 0 1.59-.42 3.11-1.19 4.43a8.813 8.813 0 01-3.26 3.24l-1.68.97 1.11-8.32c.01-.13.02-.25.02-.38 0-.77-.32-1.48-.82-1.99-.51-.5-1.22-.82-1.99-.82z" fill="#ff826e"/><path d="M42.93 11.8c-.18-1.71-.75-3.3-1.63-4.68A10.98 10.98 0 0032 2c-3.04 0-5.79 1.23-7.78 3.22A11.011 11.011 0 0021.75 9c-.48 1.24-.75 2.59-.75 4v10.15c0 2.45.59 4.81 1.67 6.91 1.55 3.02 4.1 5.51 7.33 6.94h4c3.23-1.43 5.78-3.92 7.33-6.94.18-.35.35-.7.49-1.06A15.02 15.02 0 0043 23.15V13c0-.4-.02-.8-.07-1.2z" fill="#aab2bd"/><path d="M33.41 34.59c.37.36.59.86.59 1.41v2c0 1.1-.9 2-2 2s-2-.9-2-2v-2c0-1.1.9-2 2-2 .55 0 1.05.22 1.41.59z" fill="#fcd770"/><path d="M47 6c-2.018 0-3.939.404-5.696 1.127A10.764 10.764 0 0142.93 11.8c.05.4.07.8.07 1.2v10.15c0 2.04-.41 4.03-1.18 5.85-.14.36-.31.71-.49 1.06a8.79 8.79 0 016.594 5.893C55.776 35.474 62 28.972 62 21c0-8.284-6.716-15-15-15z" fill="#69d6f4"/><path d="M28.94 27.3l-.8 3.99A11.52 11.52 0 0125 23.38V21c0 1.94.78 3.68 2.05 4.95zM39 21v2.38c0 3-1.16 5.81-3.14 7.91l-.8-3.99A7.012 7.012 0 0039 21z" fill="#e6e9ed"/><path d="M32.99 14c.01.05.01.09.01.14 0 1.06-.79 1.96-1.84 2.09L25 17v-2c0-1.94.78-3.68 2.05-4.95S30.06 8 32 8c3.87 0 7 3.13 7 7v3a9.326 9.326 0 00-5.5-3.87L33 14z" fill="#b27946"/><path d="M35.06 27.3l.8 3.99v.01A11.593 11.593 0 0132 34c-1.48-.64-2.79-1.56-3.86-2.7v-.01l.8-3.99c.92.45 1.96.7 3.06.7s2.14-.25 3.06-.7z" fill="#f0d0b4"/><path d="M39 18v3c0 2.77-1.61 5.16-3.94 6.3-.92.45-1.96.7-3.06.7s-2.14-.25-3.06-.7l-1.89-1.35A6.958 6.958 0 0125 21v-4l6.16-.77A2.106 2.106 0 0033 14.14c0-.05 0-.09-.01-.14H33l.5.13c2.25.56 4.21 1.94 5.5 3.87z" fill="#f0d0b4"/><circle cx="29" cy="19" r="1"/><circle cx="35" cy="19" r="1"/><path d="M29.895 21.553l-1.789.895.105.211C28.933 24.103 30.385 25 32 25s3.067-.897 3.789-2.342l.105-.211-1.789-.895-.105.212c-.381.762-1.147 1.236-2 1.236s-1.619-.474-2-1.236zM5 48h6v-8H5zm2-6h2v4H7zm-6-2h2v8H1zm6-10H1v8h6zm-2 6H3v-4h2zm4-6h2v8H9z"/><path d="M63 21c0-8.822-7.178-16-16-16a15.92 15.92 0 00-5.327.928C39.488 2.947 35.971 1 32 1c-4.831 0-8.994 2.876-10.895 7H3c-1.103 0-2 .897-2 2v12c0 1.103.897 2 2 2h6.5l2.3 3.066a2.343 2.343 0 001.867.934A2.336 2.336 0 0016 25.667V24h4.031a16.1 16.1 0 001.248 5.42A9.75 9.75 0 0019 30.557V30h-6v8h1.58l-1.389 6.946A9.843 9.843 0 0013 46.875c0 3.52 1.898 6.79 4.954 8.536l1.254.717.475 3.563a3.823 3.823 0 003.779 3.31h17.074a3.823 3.823 0 003.779-3.31l.475-3.563 1.254-.717a9.849 9.849 0 004.765-10.465l-1.621-8.108C57.022 35.764 63 29.033 63 21zm-18.916 9h5.982a18.46 18.46 0 01-2.177 3.561A9.764 9.764 0 0044.084 30zm5.969-18h-6.104C45.017 9.715 46.263 8.184 47 7.4c.739.786 1.984 2.322 3.053 4.6zm10.896 8h-6.986c-.089-2.259-.455-4.263-.987-6h6.13a13.867 13.867 0 011.843 6zm-8.986 0H44v-6h6.858c.583 1.701 1.006 3.701 1.105 6zm-8.716 8c.488-1.545.753-3.176.753-4.849V22h7.971c-.098 2.299-.522 4.3-1.102 6zm10.724-6h6.981a13.905 13.905 0 01-1.848 6h-6.135c.536-1.74.913-3.742 1.002-6zm3.737-10h-5.457a20.611 20.611 0 00-2.76-4.765A13.986 13.986 0 0157.708 12zM44.525 7.227a19.63 19.63 0 00-1.226 1.771c-.162-.456-.35-.899-.563-1.327a13.79 13.79 0 011.789-.444zM22 13c0-5.514 4.486-10 10-10s10 4.486 10 10v10.151c0 5.079-2.732 9.729-7.063 12.239a2.99 2.99 0 00-.746-1.425A12.53 12.53 0 0040 23.384V15c0-4.411-3.589-8-8-8s-8 3.589-8 8v8.384a12.53 12.53 0 005.809 10.581c-.366.394-.633.88-.746 1.425A14.163 14.163 0 0122 23.151zm16 2.37a10.314 10.314 0 00-4.166-2.188A3.136 3.136 0 0030.857 11 2.86 2.86 0 0028 13.857V14h2v-.143c0-.472.385-.857.857-.857.63 0 1.143.513 1.143 1.143 0 .556-.416 1.026-.968 1.096L26 15.867V15c0-3.309 2.691-6 6-6s6 2.691 6 6zm-12 2.513l5.28-.66a3.114 3.114 0 002.513-1.967A8.293 8.293 0 0138 18.327V21c0 3.309-2.691 6-6 6s-6-2.691-6-6zm10.41 11.066l-.228-1.142a8.066 8.066 0 001.186-.892 10.621 10.621 0 01-.958 2.034zm-8.591-1.142l-.228 1.142a10.558 10.558 0 01-.957-2.034c.365.333.762.631 1.185.892zm1.869.849a7.96 7.96 0 004.624 0l.46 2.298a10.496 10.496 0 01-2.771 1.948 10.503 10.503 0 01-2.771-1.948zM31 36a.99.99 0 01.861-.972l.139.06.139-.06A.99.99 0 0133 36v2a1 1 0 01-2 0zM14 22v3.667c-.001.288-.429.43-.601.2L10.5 22H3V10h17.395A11.926 11.926 0 0020 13v.586l-2.293-2.293-1.414 1.414L19.586 16l-3.293 3.293 1.414 1.414L20 18.414V22zm1 10h2v.339A9.766 9.766 0 0015.04 36H15zm6.813 13h20.373a1.815 1.815 0 011.797 2.053L42.658 57H21.342l-1.327-9.947A1.815 1.815 0 0121.813 45zm18.724 16H23.463a1.818 1.818 0 01-1.797-1.573L21.609 59h20.782l-.057.427A1.818 1.818 0 0140.537 61zm4.588-7.373l.842-6.309A3.818 3.818 0 0043 43.091v-2.856l.895-1.789-1.789-.895L41 39.764V43H23v-3.236l-1.105-2.211-1.789.895.894 1.788v2.856a3.818 3.818 0 00-2.967 4.226l.842 6.31A7.846 7.846 0 0115 46.875c0-.515.052-1.031.152-1.536l1.635-8.178a7.784 7.784 0 015.394-5.924 16.146 16.146 0 006.818 6.387V38c0 1.654 1.346 3 3 3s3-1.346 3-3v-.376a16.134 16.134 0 006.818-6.387 7.783 7.783 0 015.394 5.924l1.635 8.178A7.77 7.77 0 0149 46.875a7.843 7.843 0 01-3.875 6.752zm4.356-18.856A20.822 20.822 0 0052.25 30h5.449a13.957 13.957 0 01-8.218 4.771z"/><path d="M8.293 11.293L3.586 16l4.707 4.707 1.414-1.414L6.414 16l3.293-3.293zm2.732 8.462l1.996-7.998 1.939.483-1.996 8z"/></svg>