<svg xmlns="http://www.w3.org/2000/svg" width="404.64" height="310.734" overflow="visible"><g fill-rule="evenodd" clip-rule="evenodd"><path fill="#FFF" d="M334.56 69.631c-5.088-3.696-13.127-6.514-11.04-15.84 4.307.073 6.452 4.668 10.08 3.84.691-.109.168-1.433.96-1.44-1.45-4.309-6.246-5.273-9.6-7.68-.471-7.558 1.71-15.462-3.36-17.76-6.972-1.467-10.015 8.59-14.88 9.12-3.235.353-4.211-2.722-8.64-2.4.405 5.035 4.95 5.93 7.2 9.12-1.852 3.281-.817 7.792-3.36 11.04 1.011 3.469 5.366 3.594 4.8 8.64 1.031.89 3.517.324 5.28.48.403 1.196.628 2.572.48 4.32-3.058.599-5.172-.634-7.2-.48-1.291.098-2.189 1.106-3.36.96-2.851-.355-8.494-4.582-10.56-6.72-1.889-1.955-4.401-5.452-6.24-8.16-13.619-20.058-.864-50.03 22.56-55.2 4.206-.928 9.712-1.269 14.88-.48 1.872.286 5.275 1.252 7.681 2.4 2.114 1.009 8.099 3.74 10.08 5.76.715.729.732 2.173 1.439 2.88.231.231 1.227-.244 1.44 0 .51.581 1.485 2.339 2.399 3.36 13.465 15.018 8.045 44.731-11.039 54.24zM103.2 47.071h1.44c.496 1.594 1.594 6.28-1.92 5.28-.048-1.968-.095-3.934.48-5.28zm10.08 0c.861-.061 1.013.587 1.92.48-.142 1.867 1.243 3.797 0 5.28-1.532.412-1.485-.755-2.4-.96-.26-2.981 1.104-2.501.48-4.8zm-5.76.48h1.92v4.8c-3.223 1.105-2.681-3.443-1.92-4.8z"/><path fill="#FFF" d="M308.16 66.271c.207-1.073 2.365-.194 3.359-.48-.206 1.073-2.365.195-3.359.48zm-18.72 17.28c7.2-1.08 13.894 1.224 21.119-.48-4.313 12.13 9.888 21.737.48 28.8-8.058-8.581-13.852-19.427-21.599-28.32z"/><path d="M234.24 89.311c1.787-.062 2.597 2.443 1.92 3.36-.98-.459-1.899-.981-2.88-1.44-.349-1.31.953-.966.96-1.92z"/><path fill="#FFF" d="M223.2 108.511c-.049 1.221-1.789 1.134-2.4.48.332-1.505 1.28-.626 2.4-.48zm-10.08.48c1.459-.02 3.159-.279 2.88 1.44-1.356-.396-1.243.677-2.4.48-.372-.427-.516-1.084-.48-1.92zm-8.16.48h2.4c-.066.894-.316 1.604-.96 1.92-1.266.146-1.238-1.002-1.44-1.92zm-25.92.96c-1.163 1.575-2.294-1.334 0 0zm-30.24 0c1.51-.23 1.876.684 2.88.96-.393 1.819-3.17.738-2.88-.96zm8.16 0c.775-.135.826.454 1.44.48.19.932-2.186.701-1.44-.48zm13.44 0c1.003-.203 1.271.329 1.92.48.153.847-2.689.857-1.92-.48zm173.76 6.72c1.976.657 1.133 3.787 1.439 6.72 1.076 10.28 2.717 22.7 4.32 29.28-2.818-.678-3.222-4.827-3.36-7.2-.5-8.601-2.091-19.325-2.399-28.8zm-36.48.48c2.707 3.053 7.741 3.779 9.12 8.16-2.291-3.468-8.134-3.386-9.12-8.16zm-31.2 2.88c1.226.054.952 1.607.96 2.88-1.815.411-1.699-2.148-.96-2.88zm8.64 0c1.265-.145 1.575.665 1.439 1.92h-1.439v-1.92zm11.52 0c.845.116 1.095.826.96 1.92-.894.066-1.604.316-1.92.96-1.119-.541.381-2.454.96-2.88zm11.04.48c.062.861-.587 1.012-.479 1.92-1.047.087-1.527-.393-1.44-1.44.427-.373 1.083-.516 1.919-.48zm-300.96 2.88c.71.25 1.209.71 1.92.96.063 1.184.073 2.313-.48 2.88H6.24c-.816-.872-.739-3.559.48-3.84zm288 .48c1.241-1.652 1.16 2.469 0 0zm-294.72 0c1.763-.271 2.187 3.788 0 3.36v-3.36zm151.2.48c1.033.407 1.698 1.182 1.44 2.88h-1.92c-.348-1.468.828-1.412.48-2.88zm7.2 0c2.173.067 1.931 2.549 1.92 4.8-1.676-.443-3.104-3.021-1.92-4.8zm7.2 0c2.014.082 2.781 1.696 1.92 3.36-1.745-.015-2.109-1.411-1.92-3.36zm22.56 0c3.231-.398 3.365 3.185 1.44 4.32-1.027-.965-1.465-1.481-1.44-4.32zm6.72 0c2.391-.54 2.989 2.42 1.92 3.84-1.639-.281-2.27-1.57-1.92-3.84zm7.2.48c.485-1.352 2.039.133 2.88 0-.005 1.275.182 2.741-.479 3.36-.999-.282-1.552-1.009-2.4-1.44-.35-1.31.954-.966.96-1.92h-.961zm8.16-.48c2.147-.228 2.401 1.438 2.399 3.36-1.479.359-.585-1.655-2.399-.96v-2.4zm-67.2.96c.429-1.296 1.948.223 1.44 1.44-1.107.147-.533-1.387-1.44-1.44zm29.28-.48c3.009-.148 2.237 2.631 1.44 4.32-2.259-.713-1.478-1.817-1.44-4.32zm8.64 0c.861-.061 1.013.588 1.92.48.192 1.792-.383 2.816-1.92 2.88-1.111-1.067.163-1.872 0-3.36zm37.92 0c1.375-.094 2.62-.06 2.4 1.44-.926.934-2.938.502-2.4-1.44zm-90.24.48a1.025 1.025 0 010 1.92v-1.92zm7.2 0c2.237.009 2.237 2.391 0 2.4v-2.4zm-11.52.48c1.266-.146 1.238 1.002 1.44 1.92-1.602.482-1.574-.666-1.44-1.92zm269.76.48c2.436.181 1.878 2.907 1.439 4.8-.427-.373-1.083-.516-1.92-.48.099-1.502-.323-3.524.481-4.32zm5.28 0h1.92c.977 1.748.082 2.867-.48 4.32-2.488-.046-1.855-2.473-1.44-4.32zm-90.72.48c1.539.789 1.225 1.605.96 3.36-1.478.336-.922.336-2.399 0-.61-2.209.872-2.327 1.439-3.36zm80.16 0c2.885-.451 2.996 3.823.48 3.84-1.323-1.11-.297-1.59-.48-3.84zm-92.16.48c2.007.074 2.623 1.538 2.4 3.84-2.793.713-2.491-1.669-2.4-3.84zm-10.08.48c3.318-.997 3.865 3.922.96 3.84-.547-1.053-1.239-1.961-.96-3.84zM0 132.031c.631.489 1.77.471 2.4.96-.396 1.356.677 1.244.48 2.4-.614.656-2.266.656-2.88 0v-3.36zm8.16.48c1.41.878 2.671 2.646 1.92 4.32-3.471.378-2.865-2.51-1.92-4.32zm310.08 5.76c1.215 1.985 1.022 5.377 1.439 8.16-2.145-.508-1.551-5.935-1.439-8.16zm33.12 10.08c1.532-.677 1.213 2.872.479 2.88-2.164.045.211-1.449-.479-2.88zm-53.76 1.44h.96v.96h-.96v-.96zm33.6 0c2.78 1.7 4.415 4.544 5.28 8.16-1.203.877-3.162.999-3.841 2.4-1.726-2.843-.599-7.964-1.439-10.56zm-280.32 1.44c1.453.842 1.927 5.561 0 5.76-1.499.239-.227-.644-.48-.96-1.042-1.301-3.222-1.283-4.32-2.879.608-1.633 5.609 1.129 4.8-1.921zm266.88 0c2.375-.866 2.031 4.262-.479 2.88.552-.568.542-1.696.479-2.88zm-233.28.96c-.209.591-.614.986-1.44.96.21-.59.614-.985 1.44-.96zm-.96 1.44c.849.431 1.401 1.158 2.4 1.439.206 1.326-1.79.451-1.92 1.44-.92-.405-1.299-2.104-.48-2.879zm116.64 0c-.583 1.978-1.635 3.484-1.92 5.76-2.697-.022-4.933-.507-7.2-.96-2.26.235-1.161-.865.48-.48 2.659-.221 4.334-1.425 7.2-1.439.458-2.219-3.122-.398-2.88-2.4 1.857.256 2.343-.858 4.32-.481zm99.84 0c2.253.34.843 4.196 4.32 4.319-1.585 5.685 8.961 4.856 11.04 1.44-.145-.712-2.02-2.065-2.4-.96-1.079-1.994 5.392-2.779 6.72-2.4-1.183 3.396-.938 6.633 0 10.08-4.308 1.933-9.156 3.323-13.439 5.28-2.421-5.58-3.611-12.389-6.241-17.759zm-213.6 5.281c-2.186 2.035 2.91 2.84.48 3.359.407.714 1.545.694 2.4.96-.51 1.09-3.017.183-4.32.48-.305 2.225 2.625 1.215 4.32 1.439.812.535-2.624.864-3.84.96 1.717 2.597 8.216 1.903 11.52 1.44-.004 2.518 3.218 2.883 4.8 2.399-2.109 2.462-.823 5.659-2.88 7.681.373 3.473 6.524 3.708 7.2 5.28-.434 1.371-3.975-.168-5.76-.961-9.79-4.347-18.414-12.234-22.56-22.56 3.356-.22 5.538-.791 8.64-.477zm13.44 0c.115-.694 3.951-1.116 3.36.479-1.665.385-1.845-.715-3.36-.479zm50.4-.481c-1.489 1.552-5.212.868-7.68 1.44 1.587-1.453 5.295-.785 7.68-1.44zm46.56 3.361c-1.99-.13-1.87.63-3.36 0 .571-.328 3.511-1.982 3.36 0zm-98.4 0c.827-1.693.786 1.385 2.4.479.156 1.09-7.384 2.427-3.84.96-.07.029 2.917-.564 1.44-1.439zm289.92 0c-5.279 2.166-11.989-.063-17.761 1.439-.562.078-.404.875-.479 1.44-1.947-.45-4.864-.851-6.72 0-.418-1.857 1.172-1.708 1.439-2.88 9.407 1.369 14.099-1.598 23.521.001zm-235.2 2.879c-3.286-.246-5.229.852-8.64.479-.553-2.313 2.232-1.287 2.4-2.88 2.151 1.441 5.079-.387 6.24 2.401z"/><path fill="#FFF" d="M126.72 163.711c.455 1.734-1.891.669-2.88.96.187 1.413 2.262.938 2.88 1.92h9.6c-.013.467-.587.372-.96.479h-13.44c9.258 5.303 27.995 1.126 39.84 3.841-8.137 1.065-20.452.234-27.84.479.553 1.858 3.293 1.672 4.8 1.92 3.071.506 7.109.443 12.48.48 4.042 3.679 9.702 1.574 15.36 1.439 7.288-.173 15.024 2.783 22.08.48-2.546-2.894-9.104-1.776-13.44-2.88 3.58-1.54 11.444 1.204 12.48-2.881 1.43 1.276 5.415-.191 6.24.48-2.116 6.044-3.018 13.303-4.32 20.16-9.44-.317-21.674-.943-30.72-.96-16.021-.029-28.003-1.801-41.76-2.88-.456-.985-.596-2.285-1.92-2.4 1.922-.081 2.5-1.231 4.8-1.92-.44-1.8-1.561-2.92-3.36-3.36 1.24-1.159 3.635-1.165 3.84-3.359.225-2.305-2.318-1.843-2.88-3.36-.359-1.479 1.655-.585.96-2.4-.459-2.42-3.817-1.942-4.8-3.84 3.808.288 6.941-.099 7.2-3.359 2.044.197 4.258.223 5.76.961zm69.6 0c.011 1.131-.827 1.413-.48 2.88-2.308 2.08-10.063 1.593-12-.96 5.32.521 8.794-.806 12.48-1.92zm208.32.48v2.88c-2.533-1.146-5.028-2.331-8.64-2.399 1.929-1.112 5.913-.168 8.64-.481zm-378.72.96c-1.287 2.783 1.44 2.574 3.84 2.88-1.51 1.323-3.773-.685-6.24 0 .624-.638.633-1.786-.48-1.92.592-.688 1.65-.909 2.88-.96zm69.12.48c-.081-1.041 1.703-.218 2.4-.48.081 1.041-1.703.218-2.4.48zm309.6 2.4v1.44c-9.694.076-18.813-2.379-27.84-1.44.055-.585.144-1.136.96-.96-.804-1.227-4.921.8-5.76-1.439 10.003-.595 22.221 4.128 32.64 2.399z"/><path fill="#FFF" d="M153.12 174.271c1.703-2.457 8.033-.286 9.6-2.88 3.269.879 5.384.807 8.64.96h2.88c-4.18 1.663-10.173-1.1-12.96 1.44-2.758.123-6.119-.359-8.16.48zm163.2 45.601c-2.127 1.859-5.178.803-7.681.96-4.397.276-8.086 1.428-12 1.439 2.453-2.347 6.822-2.777 9.12-5.28 2.904 1.577 8.488.473 10.561 2.881zm-28.8 7.199c-.357 1.083-2.691.188-3.84.48.4-1.098 2.949-1.314 3.84-.48zm-41.28 42.721c-.21.59-.614.985-1.44.96-.224-1.025.685-.915 1.44-.96zm-2.4.959c.645.315.895 1.025.96 1.92-1.553-.594-.366 1.553-1.92.96-1.309-1.301 1.241-1.195.96-2.88zm12 4.32c-.795 2.271-.471 2.703-1.92 4.32-.427-.213-.858-.422-.96-.96v-.96c2.508 1.705.529-2.654 2.88-2.4zm-3.84 3.36c-.115.845-.826 1.094-1.92.96.316-.644 1.026-.893 1.92-.96z"/><path d="M0 117.631c2.974.845 6.865-.805 10.08.48 1.74-.34.662-3.499.96-5.28-.393-1.208-2.531-.669-3.36-1.44.043-4.917 4.83-5.09 7.68-7.2 3.485 1.155 5.712 3.568 8.16 5.76-1.106 2.094-2.632 3.768-1.92 7.68 4.167-.267 7.86.129 12.96 0 1.057-1.184 1.066-3.414 1.92-4.8 2.202.599 3.332-.543 5.28.48 1.166 1.463.704 2.057.48 4.32 4.487-.792 10.392-.168 14.88-.96 2.611 6.898 1.879 16.897 1.44 25.44-.108 2.101-.752 4.687.48 6.24-.153 1.127-1.486 1.074-1.92 1.92 1.113.153 1.843-.077 2.4-.48 2.671-7.912.52-16.844.96-24.48.094-1.637.646-3.213.48-4.8-.337-3.231-3.09-9.184-4.32-12.48-3.062-8.208-7.145-17.016-12.96-22.56 5.527-4.207 11.98-1.803 17.76.48 1.356.536 3.154 1.011 3.84 1.44 2.683 1.677 6.238 6.622 7.2 9.12 1.867 4.847.768 10.719.48 16.8-1.356-.396-1.244.677-2.4.48 5.342 7.962.361 26.113 4.32 37.44 2.216-1.382 3.891-.324 7.2-.48a15.295 15.295 0 00-5.28-2.4c.061-2.46-1.789-3.011-2.4-4.8.665-9.25.147-16.208-.48-25.44 6.97-1.185 13.672-.144 19.2-.96.702 1.698 2.306 2.494 3.36 3.84.238 2.638-2.739 2.062-1.92 5.28.597 1.886 4.416.805 5.28 0 .17-26.496-.947-48.553-.48-73.92.02-1.058.802-1.37.96-2.4.355-2.312-1.45-5.125 0-7.68-.414-1.666-1.497-2.663-2.4-3.84 1.992-4.302 4.076-9.457 6.24-14.4 2.073-4.736 3.096-10.893 6.72-12.96 2.85 1.135 13.095 23.765 13.44 26.88-.392 2.008-2.57 2.23-3.36 3.84 1.779 7.96 2.631 20.898 1.44 30.72-.331 1.291-.898 7.326-.48 9.6.822 4.464.614 25.946 0 25.92.147 3.185.174 7.67 0 11.52 5.243 1.54 16.287.507 22.56.48v-6.24c-.866-2.813-7.445.085-8.16-2.88 1.562-1.987 4.307-2.75 6.72-3.84 7.31-3.302 14.594-7.143 26.4-5.76.244-5.036 4.371-6.189 6.72-9.12 3.582.739 5.02 3.62 7.68 5.28v4.32c5.818.059 7.936.277 12.48.48.36-1.64-1.95-.61-1.44-2.4.079-2.641 3.763-1.678 2.88-5.28 1.702-1.499 3.418-2.982 5.76-3.84 1.062-1.019.081-4.079 2.4-3.84.973.924 1.116 1.932.48 3.36 2.827.213 3.959 2.121 6.72 2.4a42.467 42.467 0 004.32 7.68c3.72.28 7.049.951 10.56 1.44 1.377-.543.52-3.32 2.88-2.88-.552-1.345-.552-2.495 0-3.84 2.137-.931 6.113-2.272 8.16-.48.022 3.227 2.543 4.691 1.44 7.68 5.629 1.317 10.39 3.678 15.359 4.8.897 1.343 1.349 3.132 1.92 4.8 11.888 2.83 16.696-2.741 22.08-7.68 6.97.382 12.819-.739 16.32 2.88 1.485 1.536 1.221 4.332 3.359 5.76 2.116.124 3.713.767 6.24.48-6.841-10.759-14.804-20.396-22.08-30.72-2.422.342-3.504-.656-5.279-.96-1.586-4.098-.889-7.12 2.399-9.12 6.419 2.267 12.002-.783 19.2-.48-12.581-8.537-23.877-20.578-21.12-39.84C281.136 16.419 295.591.635 313.439.031c13.112-.444 22.301 3.877 28.8 11.04 10.537 5.656 14.617 28.551 8.16 42.72-1.058 2.32-1.829 4.019-3.841 4.8-1.148 5.73-6.646 7.114-9.6 11.04-1.515-.235-1.695.865-3.36.48.629 9.308 6.027 11.6 6.721 20.16-.51 2.371-2.444 3.316-1.92 6.72 3.484 3.555 4.371 9.708 4.8 16.32 4.082.08 6.002.358 9.12 0 2.196 3.083 4.178 6.382 5.76 10.08 1.441.639 3.672.488 5.76.48.993-3.232-1.495-2.984-1.92-4.8 2.82-3.42 7.913-4.567 11.04-7.68h11.521c-5.363 11.757-14.26 19.981-20.641 30.72-2.961 1.199-4.89 3.43-7.2 5.28-1.356.396-1.243-.676-2.399-.48-.408 1.317-1.915 3.125-.96 4.32 4.478-2.097 7.978-5.995 11.52-9.6 10.615-10.802 19.428-25.045 25.44-40.8 4.224-.311 2.475 3.413 1.92 5.76-.896 3.794-1.378 6.133-2.88 10.08-.835 2.191-2.507 4.161-3.36 6.24-1.496 3.644-2.145 7.569-3.84 11.04-1.678 3.436-5.069 8.893-6.24 13.44-3.837 3.843-6.853 8.508-9.6 13.44.617.153 2.385.398 4.319.479.76-.694-.049-1.072 0-2.88h2.881c.708-2.309-2.759-.441-2.4-2.4 2.653 1.752-.522-3.068 3.36-1.92.71-.596-1.167-1.396.479-2.4 2.811.55 6.178.542 9.601.48-2.427-1.094-6.795-.245-8.16-2.4.115-.844.825-1.094 1.92-.96 3.062-13.898 10.432-23.488 13.439-37.44h9.601c1.441 1.438 1.631 4.129 3.359 5.28v47.52c-2.727.313-6.711-.631-8.64.48 3.611.068 6.106 1.253 8.64 2.399v.96c-10.419 1.729-22.637-2.994-32.64-2.399.839 2.239 4.956.213 5.76 1.439-.816-.176-.905.375-.96.96 9.026-.938 18.146 1.517 27.84 1.44v1.44c-7.739-.071-15.404.058-24.96 0-4.32-.026-8.071.248-12-.961-1.104-.339-3.046-.582-3.359-1.92h5.279c-.76-1-3.357-.161-4.319-.96-.381-.552.773-1.118.479-1.439-.027-.03-4.265-.818-2.88-.96-2.301.234-5.883 7.412-7.68 8.64 13.127 15.833 27.208 30.712 40.319 46.561-.349 2.196-3.277 3.881-5.76 2.399 1.605 1.755 5.027 1.692 4.8 5.28-1.067 1.011-2.314-.506-4.319 0 2.795 1.365 5.437 2.883 5.279 7.2-3.465.055-5.718 1.321-8.64 1.92 3.573 1.867 7.351 3.529 9.12 7.2-.289 4.99-5.518 5.042-10.08 5.76 1.711 3.569 7.051 3.509 7.2 8.64-3.267 1.149-5.639.234-8.64 1.44 2.607 3.151 8.505 3.015 8.159 9.12a47.024 47.024 0 00-5.76 1.92c2.423 2.973 6.328 4.295 6.72 8.16.592 5.838-6.484 9.656-11.52 11.52 1.05-4.87 5.49-6.35 7.2-10.56-.943-4.817-6.92-4.601-9.12-8.16 1.035-2.805 1.74-5.939 5.76-5.761-1.339-2.021-4.269-2.451-5.28-4.8.551-3.77 3.638-5.002 7.2-5.76-1.511-2.169-4.902-2.458-6.24-4.8.968-3.832 4.032-5.568 8.16-6.24-2.421-2.379-7.061-2.539-9.6-4.8.765-3.076 1.611-6.069 3.84-7.68-.874-1.366-2.637-1.844-3.84-2.881 2.058-1.941 2.043-5.956 6.24-5.76-1.532-1.853-3.626-.188-5.761-1.439-3.008-5.763-7.378-10.544-11.04-15.841-6.239-9.024-11.212-18.889-17.76-27.84-7.412 6.941-13.88 14.982-21.6 21.601-1.143.979-3.195.934-3.36 2.88-5.858 2.941-9.994 7.605-15.36 11.04 1.818.524 6.357-.354 9.601 0 1.614-.775-1.509-1.521 0-2.4 5.98-2.499 16.185-2.782 23.04-.479-.588 3.751-5.511 2.736-7.68 2.88-1.305 1.444 1.05 2.142.479 4.319-2.403 1.277-5.79 1.57-8.16 2.881.835.925 3.334.187 3.36 1.92-2.82 3.723-9.996 3.11-15.84 3.84-1.729.216-5.558.81-8.641.479 5.396 1.812 13.563-.652 15.84 3.36-3.208 6.392-17.123 2.077-20.159 8.64-1.861.54-3.34 1.461-5.28 1.92 8.475-.255 20.478-.94 24.479 5.761-.306 3.054-5.135 1.584-6.239 3.84-6.776.84-10.201 2.085-17.28 2.399 1.771 1.429 4.08 2.32 4.8 4.801-1.319 1.4-4.629.811-5.28 2.88-7.333.826-13.372 2.947-21.119 3.359 6.616.86 18.29.505 19.199 8.641-6.192 2.847-14.152 3.979-20.64 5.279 3.569.777 6.926 1.638 9.12 4.801-.091 1.35-1.566 1.313-1.92 2.399 1.556 1.206 4.051.143 5.28-.479-.307 2.494 1.059 3.847 0 5.76-3.599 2.802-10.651 2.149-11.521 7.68h-3.84c-1.346 1.223 2.025 1.787.96 4.32-1.7.22-2.772 1.067-4.8.96-1.146 2.147 3.432 2.183 2.399 5.76-2.105 2.47-9.585 1.579-12.479.48-.538-1.512-.044-1.087 0-2.88-1.521.666-4.239.666-5.76 0 .549-2.811-1.919-3.717-3.36-5.761.417-1.396.719-.539 1.92-.479-.621-1.706-1.085-1.745-.48-3.84-3.563-1.717-10.596.036-12-3.84 3.18-3.861 11.021-3.06 16.801-4.32-4.917-1.392-13.308-.647-19.681-1.92-3.549-.709-6.527-2.085-8.159-4.32 2.633-3.286 9.633-2.207 13.439-4.32-6.848-1.312-17.103.783-20.16-4.319.302-1.618 1.631-2.21 3.36-2.4-.34-1.74-3.498-.661-5.28-.96-.645.316-.894 1.026-.96 1.92-10.819 3.777-24.114 3.629-36.48 3.36-4.652-.101-10.706-.104-13.92-3.36 2.151-2.998 6.316-2.496 10.08-2.88 11.381-1.161 25.231-2.596 36.959 0-2.034-.846-4.478-1.281-6.72-1.92-.909-1.264-1.014-1.616-.479-2.88-17.947 2.941-39.559 2.054-56.16.479 1.68 1.68 5.176 1.544 6.72 3.36.347 1.467-.491 1.749-.48 2.88-9.45 1.105-19.333 1.426-29.28-.479-1.952-.374-4.897-.35-5.76-2.4h6.72c-4.903-1.23-9.875-.28-15.36-1.439.825-1.734 4.425-.694 5.76-1.921-1.579-2.101-7.509.149-8.16-2.88 2.851-.349 5.179-1.222 8.64-.96-4.099-1.464-12.276-1.381-17.28-3.359 1.063-2.938 5.462-2.538 8.64-3.36-2.926-2.033-9.02-.9-11.04-3.84.505-1.255 1.951-1.57 3.84-1.44-1.377-1.183-4.239-.881-4.8-2.88-4.359 2.441-10.961 2.796-19.68 2.4-6.9-.313-13.689-.585-15.84-4.8 1.895-3.226 7.316-2.924 12-3.36-3.998-1.922-10.548-1.292-11.52-6.24 2.831-2.142 6.57-.342 9.12-1.439-.254-.387-.5-.779-.48-1.44-.61.536-5.405.159-5.76-2.4 1.74-3.368 5.982-2.556 10.56-1.92-.865-1.694-4.136-.983-5.28-2.399-.687-1.34 2.007-1.594-.48-2.88.148-.651 1.202-.398 1.92-.48-1.974-2.666-7.367-1.913-9.12-4.8 1.993-2.343 6.241 1.023 10.08 0-1.086-1.313-2.88-1.92-4.32-2.88.844-2.144 3.552-1.165 5.76-.96-7.353-7.367-13.455-15.984-16.32-27.84-.141-.979-1.299-.941-1.44-1.92-2.508-.108-4.792.008-6.72.479-1.178-1.713-1.313-5.899-.48-8.16 2.548-.492 4.797-1.283 6.72-2.399-.131-2.749-4.859-.901-7.2-1.44-.635-2.908-1.157-7.055 0-9.12 2.51-.21 4.206-1.234 7.2-.96v-3.84h-3.36c-1.315 1.144 1.895 2.116.48 3.36-1.919.159-2.665-.856-4.8-.48-1.909 1.291-2.726 3.675-6.72 2.88 1.097 1.303 4.662.138 4.32 2.88-.023 2.058-2.88 1.28-4.8 1.44.072.888 1.625.295 1.92.96-1.047 1.673-2.822 2.618-5.76 2.4-.596 2.326-3.329 1.627-6.72 2.88-1.493.551-2.566 1.732-3.36 1.92-3.831.901-8.237-.041-11.52-1.92.108-.691 1.433-.168 1.44-.96-5.346-1.253-10.089-1.568-14.88-3.36-1.617-.604-4.1-1.15-4.32-2.88 2.243-1.256 6.678-1.305 9.12-.96-.087-1.513-2.423-.777-2.4-2.4.409 2.085-4.874 1.564-7.68 1.92v-4.8c3.775-.351 4.696 1.452 9.6 0-1.36-1.782-7.475-1.024-9.6-.479v-24.48c.614.656 2.266.656 2.88 0 .197-1.156-.876-1.043-.48-2.4-.63-.489-1.769-.471-2.4-.96v-4.32c2.187.428 1.763-3.63 0-3.36.005-2.243.005-4.483.005-6.723zm345.6-102.24c-.914-1.021-1.89-2.779-2.399-3.36-.214-.244-1.209.231-1.44 0-.707-.708-.725-2.151-1.439-2.88-1.981-2.02-7.966-4.751-10.08-5.76-2.405-1.147-5.809-2.114-7.681-2.4-5.168-.789-10.674-.448-14.88.48-23.424 5.17-36.179 35.143-22.56 55.2 1.839 2.708 4.352 6.205 6.24 8.16 2.065 2.139 7.709 6.365 10.56 6.72 1.171.146 2.069-.862 3.36-.96 2.028-.154 4.143 1.079 7.2.48.147-1.749-.077-3.124-.48-4.32-1.764-.156-4.249.41-5.28-.48.566-5.046-3.789-5.17-4.8-8.64 2.543-3.248 1.509-7.759 3.36-11.04-2.25-3.19-6.795-4.085-7.2-9.12 4.429-.322 5.404 2.753 8.64 2.4 4.865-.53 7.908-10.587 14.88-9.12 5.07 2.298 2.89 10.202 3.36 17.76 3.354 2.407 8.149 3.371 9.6 7.68-.792.008-.269 1.332-.96 1.44-3.628.828-5.773-3.768-10.08-3.84-2.087 9.327 5.952 12.144 11.04 15.84 19.083-9.509 24.503-39.222 11.039-54.24zm-242.88 36.96c3.514 1 2.416-3.686 1.92-5.28h-1.44c-.575 1.346-.528 3.312-.48 5.28zm10.08-.48c.916.205.869 1.372 2.4.96 1.243-1.483-.142-3.413 0-5.28-.908.107-1.059-.541-1.92-.48.624 2.299-.74 1.819-.48 4.8zm-3.36.48v-4.8h-1.92c-.761 1.357-1.303 5.905 1.92 4.8zm201.6 59.52c9.407-7.062-4.794-16.67-.48-28.8-7.226 1.704-13.919-.6-21.119.48 7.746 8.893 13.54 19.739 21.599 28.32zm-90.24-2.88c.611.654 2.352.741 2.4-.48-1.12-.146-2.068-1.025-2.4.48zm-7.2 1.92c1.157.197 1.044-.876 2.4-.48.279-1.719-1.421-1.459-2.88-1.44-.036.836.108 1.493.48 1.92zm-7.2.48c.644-.316.894-1.026.96-1.92h-2.4c.202.918.174 2.066 1.44 1.92zm-45.6-.48c.851.429.612 1.948 2.4 1.44v-2.4c-1.192-.072-1.992.248-2.4.96zm18.24-.48c-2.294-1.334-1.163 1.575 0 0zm-27.36.96c-1.004-.276-1.37-1.19-2.88-.96-.29 1.698 2.487 2.779 2.88.96zm6.72-.48c-.614-.026-.665-.615-1.44-.48-.746 1.181 1.63 1.412 1.44.48zm13.92 0c-.649-.151-.917-.683-1.92-.48-.769 1.337 2.073 1.327 1.92.48zm174.24 35.04c.139 2.374.542 6.522 3.36 7.2-1.604-6.581-3.244-19-4.32-29.28-.307-2.933.536-6.063-1.439-6.72.307 9.475 1.898 20.199 2.399 28.8zm-29.76-20.16c-1.379-4.381-6.413-5.106-9.12-8.16.986 4.774 6.829 4.692 9.12 8.16zm-39.36-2.4c-.008-1.272.266-2.826-.96-2.88-.739.732-.855 3.291.96 2.88zm7.68-.96h1.439c.136-1.255-.175-2.064-1.439-1.92v1.92zm10.56.96c.316-.644 1.026-.894 1.92-.96.135-1.094-.115-1.804-.96-1.92-.579.426-2.079 2.339-.96 2.88zm10.08-1.92c-.087 1.047.394 1.527 1.44 1.44-.107-.908.541-1.059.479-1.92-.835-.036-1.491.107-1.919.48zm-106.08 30.24c1.207.644 2.29-1.326 2.88-1.92 4.475-4.504 8.133-8.68 12.959-12.48 5.075-3.995 9.271-6.307 15.841-9.12 3.921-1.679 8.367-4.134 12-4.32 2.656-.135 7.565 1.57 11.52 1.92 5.292.468 9.368.876 12.48 3.36 1.112.153 1.843-.078 2.399-.48.182 2.219 2.906 1.894 4.8 2.4v1.44c7.444 1.676 11.267 6.974 17.28 10.08 1.15 1.841 2.876 5.292 5.28 4.32-3.585-5.535-10.217-8.023-14.4-12.96-1.778.463-3.101-1.797-3.359-1.92-3.496-1.651-8.85-2.063-9.12-5.28-1.554-.593-.367 1.553-1.92.96-10.692-4.018-27.597-7.223-36.48-1.44-1.014-.426-1.419-1.461-2.88-1.44-.659 1.094 1.237 1.805 0 1.92-10.837 4.204-18.157 11.923-26.4 18.72-.422 1.542 1.583.658 1.44 1.92-1.442 1.438-3.284 2.476-4.32 4.32zm-193.44-24h1.92c.553-.567.543-1.696.48-2.88-.71-.25-1.21-.71-1.92-.96-1.219.281-1.296 2.968-.48 3.84zm288.48-3.36c1.16 2.469 1.241-1.652 0 0zm-144 3.36h1.92c.258-1.698-.407-2.473-1.44-2.88.348 1.468-.828 1.412-.48 2.88zm9.6 1.92c.011-2.251.253-4.733-1.92-4.8-1.184 1.779.244 4.357 1.92 4.8zm7.2-1.44c.861-1.664.094-3.278-1.92-3.36-.189 1.949.175 3.345 1.92 3.36zm22.08.96c1.925-1.135 1.791-4.719-1.44-4.32-.025 2.839.413 3.355 1.44 4.32zm7.2-.48c1.069-1.42.471-4.38-1.92-3.84-.35 2.27.281 3.559 1.92 3.84zm6.24-3.36c-.006.954-1.31.61-.96 1.92.849.432 1.401 1.159 2.4 1.44.661-.619.475-2.085.479-3.36-.841.133-2.395-1.352-2.88 0h.961zm7.2 1.92c1.814-.695.921 1.319 2.399.96.002-1.922-.252-3.588-2.399-3.36v2.4zm-65.76 0c.508-1.217-1.011-2.736-1.44-1.44.907.053.333 1.587 1.44 1.44zm29.28 2.4c.797-1.689 1.569-4.468-1.44-4.32-.038 2.503-.819 3.607 1.44 4.32zm7.2-.96c1.537-.064 2.112-1.088 1.92-2.88-.907.108-1.059-.541-1.92-.48.163 1.488-1.111 2.293 0 3.36zm40.32-1.92c.22-1.5-1.025-1.534-2.4-1.44-.538 1.942 1.474 2.374 2.4 1.44zm-92.64.96a1.025 1.025 0 000-1.92v1.92zm7.2.48c2.237-.009 2.237-2.391 0-2.4v2.4zm-10.08 0c-.202-.918-.174-2.066-1.44-1.92-.134 1.254-.162 2.402 1.44 1.92zm267.84 2.88c.837-.036 1.493.107 1.92.48.438-1.894.996-4.619-1.439-4.8-.805.796-.383 2.818-.481 4.32zm7.2 0c.562-1.454 1.457-2.572.48-4.32h-1.92c-.415 1.847-1.048 4.274 1.44 4.32zm-93.6-.48c1.478.336.922.336 2.399 0 .265-1.755.579-2.572-.96-3.36-.566 1.033-2.048 1.151-1.439 3.36zm82.08.48c2.516-.018 2.404-4.292-.48-3.84.183 2.25-.843 2.73.48 3.84zm-90.24.48c.223-2.303-.394-3.766-2.4-3.84-.091 2.171-.393 4.553 2.4 3.84zm-11.52.48c2.905.082 2.358-4.837-.96-3.84-.279 1.879.413 2.787.96 3.84zm-277.44 4.8c.751-1.674-.51-3.442-1.92-4.32-.945 1.81-1.551 4.698 1.92 4.32zm309.6 9.6c-.417-2.783-.225-6.175-1.439-8.16-.113 2.225-.707 7.652 1.439 8.16zm-120.48 3.36c1.434-.166 1.911-1.289 2.4-2.4-1.158.442-1.957 1.242-2.4 2.4zm152.64 1.44c.733-.008 1.053-3.557-.479-2.88.689 1.431-1.686 2.925.479 2.88zm-54.24-.48h.96v-.96h-.96v.96zm35.04 9.6c.679-1.401 2.638-1.523 3.841-2.4-.865-3.615-2.5-6.46-5.28-8.16.839 2.596-.288 7.717 1.439 10.56zm-286.56-7.2c1.098 1.596 3.277 1.579 4.32 2.879.253.316-1.019 1.199.48.96 1.927-.199 1.453-4.918 0-5.76.809 3.051-4.192.289-4.8 1.921zm271.2.96c2.511 1.382 2.854-3.746.479-2.88.064 1.184.074 2.312-.479 2.88zm-234.24-.96c.826.025 1.23-.37 1.44-.96-.826-.025-1.23.37-1.44.96zm.96 3.36c.13-.989 2.125-.114 1.92-1.44-.999-.281-1.551-1.009-2.4-1.439-.819.774-.44 2.473.48 2.879zm111.84-2.4c-.242 2.002 3.338.182 2.88 2.4-2.866.015-4.541 1.219-7.2 1.439-1.641-.385-2.74.716-.48.48 2.267.453 4.503.938 7.2.96.285-2.275 1.337-3.782 1.92-5.76-1.977-.376-2.463.738-4.32.481zm110.4 17.28c4.283-1.957 9.132-3.348 13.439-5.28-.938-3.447-1.183-6.684 0-10.08-1.328-.379-7.799.406-6.72 2.4.381-1.105 2.256.248 2.4.96-2.079 3.416-12.625 4.244-11.04-1.44-3.478-.123-2.067-3.979-4.32-4.319 2.631 5.369 3.821 12.178 6.241 17.759zm-228.48-12c4.146 10.325 12.77 18.213 22.56 22.56 1.786.793 5.326 2.332 5.76.961-.676-1.572-6.827-1.808-7.2-5.28 2.057-2.021.771-5.219 2.88-7.681-1.582.483-4.804.118-4.8-2.399-3.304.463-9.803 1.156-11.52-1.44 1.216-.096 4.652-.425 3.84-.96-1.695-.225-4.625.785-4.32-1.439 1.303-.298 3.81.609 4.32-.48-.854-.266-1.993-.246-2.4-.96 2.43-.52-2.666-1.324-.48-3.359-3.102-.316-5.284.255-8.64.477zm25.44 0c.59-1.596-3.245-1.174-3.36-.479 1.515-.236 1.695.864 3.36.479zm39.36.481c2.468-.572 6.191.111 7.68-1.44-2.385.654-6.093-.014-7.68 1.44zm50.88 1.92c1.49.63 1.37-.13 3.36 0 .151-1.982-2.789-.328-3.36 0zm-96.48 1.439c-3.544 1.467 3.996.13 3.84-.96-1.614.905-1.573-2.173-2.4-.479 1.477.875-1.51 1.468-1.44 1.439zm267.84-1.439c-.268 1.172-1.857 1.022-1.439 2.88 1.855-.851 4.772-.45 6.72 0 .075-.565-.083-1.362.479-1.44 5.771-1.503 12.481.727 17.761-1.439-9.423-1.6-14.115 1.367-23.521-.001zm-217.92.479c-.168 1.593-2.953.566-2.4 2.88 3.412.372 5.354-.726 8.64-.479-1.161-2.789-4.089-.961-6.24-2.401zm-25.92.48c-.259 3.261-3.392 3.647-7.2 3.359.983 1.897 4.341 1.42 4.8 3.84.695 1.815-1.319.922-.96 2.4.562 1.518 3.104 1.056 2.88 3.36-.205 2.194-2.6 2.2-3.84 3.359 1.799.44 2.919 1.561 3.36 3.36-2.299.688-2.878 1.839-4.8 1.92 1.324.115 1.464 1.415 1.92 2.4 13.756 1.079 25.739 2.851 41.76 2.88 9.046.017 21.28.643 30.72.96 1.302-6.857 2.204-14.116 4.32-20.16-.825-.672-4.81.796-6.24-.48-1.036 4.085-8.9 1.341-12.48 2.881 4.336 1.104 10.894-.014 13.44 2.88-7.056 2.303-14.792-.653-22.08-.48-5.658.135-11.318 2.239-15.36-1.439-5.371-.037-9.409.025-12.48-.48-1.507-.248-4.248-.062-4.8-1.92 7.388-.245 19.703.586 27.84-.479-11.845-2.715-30.582 1.462-39.84-3.841h13.44c.373-.107.947-.013.96-.479h-9.6c-.619-.981-2.694-.507-2.88-1.92.99-.291 3.335.774 2.88-.96-1.502-.739-3.716-.765-5.76-.961zm62.88 2.88c1.937 2.553 9.692 3.04 12 .96-.347-1.467.491-1.749.48-2.88-3.686 1.114-7.16 2.441-12.48 1.92zm-160.8.48c1.113.134 1.104 1.282.48 1.92 2.466-.685 4.729 1.323 6.24 0-2.4-.306-5.126-.097-3.84-2.88-1.23.051-2.288.272-2.88.96zm74.4-.96c-.697.263-2.481-.561-2.4.48.697-.262 2.481.561 2.4-.48zm63.84 8.641c2.788-2.54 8.78.223 12.96-1.44h-2.88c-3.255-.153-5.371-.081-8.64-.96-1.567 2.594-7.897.423-9.6 2.88 2.041-.84 5.402-.358 8.16-.48zm144.48 43.199c-2.298 2.503-6.667 2.934-9.12 5.28 3.914-.012 7.603-1.163 12-1.439 2.503-.157 5.554.899 7.681-.96-2.074-2.408-7.658-1.304-10.561-2.881zm-22.08 10.56c1.148-.292 3.482.603 3.84-.48-.891-.834-3.44-.618-3.84.48zm-64.8 42.241c-3.76-1.45-2.092 1.019 0 0zm25.92.959c.826.025 1.23-.37 1.44-.96-.755.046-1.664-.064-1.44.96zm-1.92 2.88c1.554.593.367-1.554 1.92-.96-.065-.895-.315-1.604-.96-1.92.281 1.685-2.269 1.579-.96 2.88zm10.08 3.84v.96c.102.538.533.747.96.96 1.449-1.617 1.125-2.049 1.92-4.32-2.351-.254-.372 4.105-2.88 2.4zm-2.88 1.92c1.094.134 1.805-.115 1.92-.96-.894.067-1.604.316-1.92.96z"/><path fill="#FFF" d="M0 159.872c2.125-.545 8.24-1.303 9.6.479-4.904 1.452-5.825-.351-9.6 0v-.479zm204-12.481c.143-1.262-1.862-.378-1.44-1.92 8.243-6.797 15.563-14.517 26.4-18.72 1.237-.115-.659-.826 0-1.92 1.461-.021 1.866 1.014 2.88 1.44 8.884-5.783 25.788-2.578 36.48 1.44 1.553.593.366-1.553 1.92-.96.271 3.217 5.624 3.629 9.12 5.28.259.123 1.581 2.383 3.359 1.92 4.184 4.937 10.815 7.425 14.4 12.96-2.404.972-4.13-2.479-5.28-4.32-6.014-3.106-9.836-8.404-17.28-10.08v-1.44c-1.894-.506-4.618-.181-4.8-2.4-.557.402-1.287.633-2.399.48-3.112-2.484-7.188-2.892-12.48-3.36-3.954-.35-8.863-2.055-11.52-1.92-3.633.186-8.079 2.641-12 4.32-6.569 2.813-10.766 5.125-15.841 9.12-4.826 3.8-8.484 7.976-12.959 12.48-.59.594-1.673 2.564-2.88 1.92 1.036-1.844 2.878-2.882 4.32-4.32zm-2.4 0c-.489 1.111-.966 2.234-2.4 2.4.443-1.158 1.242-1.958 2.4-2.4zm17.28 122.401c-2.092 1.019-3.76-1.45 0 0zM163.2 109.951v2.4c-1.789.508-1.55-1.011-2.4-1.44.408-.712 1.208-1.032 2.4-.96z"/><path d="M96 257.311c-3.821.818-6.807 2.474-11.52 2.4 2.622 3.458 8.768 3.392 9.12 9.12-4.011 2.068-10.862 1.298-15.36 2.88 6.596.193 13.835 3.713 15.84 10.08-1.708 3.258-6.516.742-11.04 1.439 2.613 2.729 9.06 3.214 9.12 7.681.045 3.367-3.798 5.34-9.12 5.279.096 1.824 2.019 1.822 1.92 3.84-1.106.494-1.548 1.652-3.36 1.44.552-3.803-4.703-4.952-7.2-7.2.883-3.757 5.788-3.492 9.6-4.32-.601-2.119-4.273-1.167-5.28-2.88-.008-1.928 2.505-1.334 4.32-1.439-3.195-3.569-7.627 1.644-11.04-.96.094-1.854.017-3.537-.48-4.8 1.228-1.013 2.059-2.422 4.32-2.4.419-1.858-2.096-.784-1.44-2.88-2.832-1.328-7.93-.391-10.56-1.92-1.175-4.669 5.669-5.359 9.6-6.24 4.154-.931 7.909-1.697 10.56-1.92-2.703-3.835-9.35-1.664-13.44-3.36v-3.359c-1.685-2.155-6.765-.916-7.68-3.841 1.287-3.517 12.633-4.706 16.8-4.8 7.348-.164 16.206 1.134 16.32 8.16z"/></g></svg>