<?xml version="1.0" standalone="no"?><svg xmlns="http://www.w3.org/2000/svg" viewBox="0 0 1440 320"><path fill="#4b4083" fill-opacity="1" d="M0,96L30,80C60,64,120,32,180,64C240,96,300,192,360,240C420,288,480,288,540,266.7C600,245,660,203,720,202.7C780,203,840,245,900,240C960,235,1020,181,1080,176C1140,171,1200,213,1260,218.7C1320,224,1380,192,1410,176L1440,160L1440,320L1410,320C1380,320,1320,320,1260,320C1200,320,1140,320,1080,320C1020,320,960,320,900,320C840,320,780,320,720,320C660,320,600,320,540,320C480,320,420,320,360,320C300,320,240,320,180,320C120,320,60,320,30,320L0,320Z"></path></svg>