<?xml version="1.0" encoding="UTF-8" standalone="no"?>
<!-- Created with Inkscape (http://www.inkscape.org/) -->

<svg
   xmlns:dc="http://purl.org/dc/elements/1.1/"
   xmlns:cc="http://creativecommons.org/ns#"
   xmlns:rdf="http://www.w3.org/1999/02/22-rdf-syntax-ns#"
   xmlns:svg="http://www.w3.org/2000/svg"
   xmlns="http://www.w3.org/2000/svg"
   xmlns:sodipodi="http://sodipodi.sourceforge.net/DTD/sodipodi-0.dtd"
   xmlns:inkscape="http://www.inkscape.org/namespaces/inkscape"
   id="svg2"
   version="1.1"
   inkscape:version="0.48.2 r9819"
   width="300.09741"
   height="390.65625"
   sodipodi:docname="silueta1.svg">
  <metadata
     id="metadata8">
    <rdf:RDF>
      <cc:Work
         rdf:about="">
        <dc:format>image/svg+xml</dc:format>
        <dc:type
           rdf:resource="http://purl.org/dc/dcmitype/StillImage" />
        <dc:title />
      </cc:Work>
    </rdf:RDF>
  </metadata>
  <defs
     id="defs6" />
  <sodipodi:namedview
     pagecolor="#ffffff"
     bordercolor="#666666"
     borderopacity="1"
     objecttolerance="10"
     gridtolerance="10"
     guidetolerance="10"
     inkscape:pageopacity="0"
     inkscape:pageshadow="2"
     inkscape:window-width="1280"
     inkscape:window-height="751"
     id="namedview4"
     showgrid="false"
     inkscape:zoom="0.944"
     inkscape:cx="240.89058"
     inkscape:cy="253.33747"
     inkscape:window-x="0"
     inkscape:window-y="0"
     inkscape:window-maximized="1"
     inkscape:current-layer="svg2"
     fit-margin-top="0"
     fit-margin-left="0"
     fit-margin-right="0"
     fit-margin-bottom="0" />
  <g
     id="g3855"
     transform="translate(-369.59334,-18.21875)">
    <g
       id="g3847">
      <path
         style="fill:#000000;stroke:#000000;stroke-width:0.9959482px;stroke-linecap:butt;stroke-linejoin:miter;stroke-opacity:1"
         d="m 399.86752,408.23777 c 1.5298,-14.46163 3.63794,-30.89319 5.48921,-41.9936 -10.12846,-3.31973 -16.0402,-13.89094 -23.96412,-21.0018 14.62021,-58.96086 15.81622,-74.02509 33.57609,-99.85764 l -1.96484,-2.92184 c -43.35191,-5.94552 -40.05825,-22.59316 -42.80328,-26.00518 -0.79256,-9.19728 2.30281,-13.43066 5.26684,-17.83172 10.83747,-33.85782 28.3489,-63.25723 47.00653,-91.53618 4.39952,-4.80049 27.53401,-6.27077 45.16313,-8.321487 5.06327,-2.430418 8.79659,-5.661327 12.11572,-9.141543 l 3.55311,0.159638 3.29179,-4.623041 c 1.58006,-0.567731 3.16011,-0.797135 4.74016,-0.660429 1.08761,-5.166394 0.81205,-6.230364 0.92169,-8.453561 -4.6736,-7.458282 -3.20853,-15.48003 0.52669,-22.586835 4.30856,-21.601066 9.13483,-32.588247 41.34468,-34.738851 12.18776,0.795622 28.34601,13.933845 27.12423,32.097103 -1.55328,5.657022 -2.21979,11.18698 -6.05687,17.171287 l -5.79353,12.548249 c 0.27882,2.058942 0.33505,3.001401 0.26335,3.302179 l -3.81845,3.698424 c -0.55625,8.906647 -1.31332,8.125921 -5.27099,11.459407 -6.79129,5.65161 -11.94242,10.40877 -16.45473,17.20345 l -0.79003,0.39625 0,0.52834 c 12.26063,8.64998 22.76039,18.00654 33.31275,27.34199 l -3.95012,55.74064 13.84912,-21.59984 c 0.62081,-3.99412 2.58793,-4.8369 4.18981,-6.53466 0.76545,-2.73625 0.0613,-4.98107 -0.13168,-7.39685 5.39896,-4.00801 10.31124,-6.55135 15.01049,-8.45356 l 0.0801,-2.89057 c -5.07866,-8.21575 -8.82777,-16.2746 -7.98042,-23.79098 0.27739,-2.83317 1.57748,-8.56727 -0.9217,-11.88781 l -0.26333,-2.11339 c -2.814,-19.160757 2.61853,-34.8712 32.25937,-41.079015 37.67943,4.004926 36.04569,18.403994 36.86788,33.021725 1.5743,2.86765 3.23481,5.64882 4.47683,8.84982 l 0.65834,6.73642 -2.10672,-6.73643 -0.52671,6.20809 c 2.64176,10.42254 2.51877,20.48333 -2.89675,29.85163 l -1.8434,1.71712 0.39502,5.41556 c 6.16606,2.66916 8.18849,2.72964 10.39277,5.16369 3.91916,4.32768 10.28767,6.28123 14.09802,15.0456 2.9982,9.30012 -2.86328,25.16242 0.26335,32.88962 -4.60857,19.91357 -0.33256,18.63294 -1.18504,30.64414 -1.96157,6.87267 -2.91138,7.93476 -2.23841,13.86913 -2.0373,13.56513 2.03494,11.56856 2.47738,22.07627 0.20971,1.92324 0.0285,3.15234 -0.90779,4.64712 -6.34065,10.05266 -8.15269,10.45162 -10.40014,11.77877 -1.09611,0.96494 -1.93926,0.93435 -3.24568,0.78691 -13.85633,-1.55097 -17.50421,-1.4502 -22.15821,-1.51225 l 5.00349,35.00302 -3.81845,20.47345 -2.23841,31.04042 -7.11024,26.94571 -94.5747,0.0364 c -0.19245,-11.17001 6.82226,-56.45033 9.97815,-82.7568 0.17804,-1.4841 -3.19014,-0.85148 -3.04826,-2.20401 0.7768,-7.40514 2.83137,-4.52824 3.83185,-15.11659 0.15539,-1.64469 -5.10724,1.91931 -5.33842,1.76727 -1.51078,-0.99373 -1.97276,-3.99418 -2.24286,-6.70771 -0.0926,-0.92997 -2.19804,-0.70708 -2.08366,-0.007 1.40756,8.61629 1.18247,41.69483 -1.54225,66.75133 -0.12144,2.68628 -3.08729,2.58683 -3.16607,5.21124 -0.47199,15.72326 -2.61771,21.31031 -4.31313,33.10364 z"
         id="path2987"
         inkscape:connector-curvature="0"
         sodipodi:nodetypes="ccccccccccccccccccccccccccccccccccccccccccccsccccccccccccccsssssscscc" />
      <path
         style="fill:#ffffff;stroke:#000000;stroke-width:1px;stroke-linecap:butt;stroke-linejoin:miter;stroke-opacity:1"
         d="m 486.9786,85.585987 c -0.81425,2.922006 -0.65209,5.286058 0.28089,7.209643 6.33073,8.26657 12.67636,16.52718 17.79003,25.28057 3.01964,0.84464 4.38693,0.45003 5.43064,-0.18727 l 2.80895,-1.59174 c 3.46069,-0.14216 4.95297,-0.003 6.74149,0.0936 l -0.0936,5.24338 -0.74906,50.18661 -5.337,54.3064 7.77418,51.34318 c -7.79837,4.91737 -16.72393,4.19878 -25.0859,6.29817 l -7.75958,1.23722 c -3.91161,0.86811 -8.35754,-0.40609 -11.7792,-1.00779 -0.0656,-1.57408 10.45102,-33.48578 10.38892,-35.06127 -2.40664,-61.06321 -2.28208,-122.83864 -6.68406,-158.85641 l 2.62169,0.09363 3.27711,-4.681588 z"
         id="path3055"
         inkscape:connector-curvature="0"
         sodipodi:nodetypes="cccccccccccccscccc" />
      <path
         style="fill:#ff0000;stroke:#000000;stroke-width:1px;stroke-linecap:butt;stroke-linejoin:miter;stroke-opacity:1"
         d="m 492.8774,127.72026 c 2.50154,-1.50749 5.23872,-3.48627 8.23959,-5.99243 1.52488,1.4842 3.53762,1.80353 8.05233,0.18727 l 3.74527,2.80895 c -3.09559,1.34331 -5.17819,5.21909 -7.30328,8.98864 0.42556,1.6074 0.48276,5.10734 1.7264,8.53198 1.36658,3.7632 1.63636,8.96522 2.76793,14.1269 l 2.62168,68.91295 2.81652,63.92276 -8.60609,16.02392 -11.1558,-14.97895 -2.1555,-68.713 0.74905,-75.46717 c 0.96477,-8.95061 2.82364,-15.9389 -1.4981,-18.35182 z"
         id="path3057"
         inkscape:connector-curvature="0"
         sodipodi:nodetypes="cccccscccccccc" />
      <path
         style="fill:#ffffff;stroke:#000000;stroke-width:1px;stroke-linecap:butt;stroke-linejoin:miter;stroke-opacity:1"
         d="m 565.16109,256.93204 c 13.0038,-39.71481 9.68512,-37.45084 52.80829,-98.8751 -1.62749,-0.21539 -2.6846,-0.14559 -5.61503,-1.01245 l -12.36226,10.84378 -3.37074,10.95491 c -1.8884,-0.37389 -2.70471,0.40832 -3.60344,0.69421 l -0.0555,3.02942 c 0.17528,0.39599 -0.0219,0.75266 -0.0995,1.05631 l -7.2901,10.3884 2.62168,-10.86128 0.53517,-21.55412 c -0.19374,-0.37069 -1.36299,-2.10707 -3.32182,-4.94888 -5.64047,1.45727 -10.06811,4.93592 -14.69809,8.07733 0.091,9.77495 0.14231,8.9523 0.92691,11.78496 2.47175,-2.17744 4.54625,-3.30509 7.018,-4.10487 1.83484,1.85381 2.8876,3.70763 3.31038,5.56144 -16.572,10.02984 -15.06771,18.93137 -32.44173,37.3411 6.4696,26.28654 10.58034,23.37084 15.63778,41.62484 z"
         id="path3063"
         inkscape:connector-curvature="0"
         sodipodi:nodetypes="cccccccccccccccccc" />
      <path
         style="fill:none;stroke:#ffffff;stroke-width:1px;stroke-linecap:butt;stroke-linejoin:miter;stroke-opacity:1"
         d="m 577.06568,119.43856 -0.79449,6.62076 c 4.3972,4.51153 9.64078,7.04815 16.15466,6.62076 l 2.11864,-4.76695 3.4428,0.66209 c 0.34366,3.334 0.66357,6.59496 2.38347,6.48834 6.67738,2.71333 14.20136,4.31265 17.47882,-1.45657 l -0.0502,-1.20852 3.16337,-0.0979 1.389,-0.67978 -4.76695,-0.26483 -1.32415,-1.05932 -18.27331,-2.51589 c -1.00881,-0.28803 -2.43411,-0.34972 -3.47692,-0.70576 -5.66346,-1.93363 -11.62979,-5.3999 -17.44469,-7.6364 z"
         id="path3071"
         inkscape:connector-curvature="0"
         sodipodi:nodetypes="cccccccccccccsc" />
      <path
         style="fill:#ffffff;stroke:#000000;stroke-width:1px;stroke-linecap:butt;stroke-linejoin:miter;stroke-opacity:1"
         d="m 493.62645,262.17542 13.85749,-7.6778 93.63173,10.48676 -21.5353,9.36317 -9.17749,-1.29965 c -5.18815,-2.54412 -15.48157,0.39344 -18.07536,-3.08714 -6.08957,-8.17153 -14.21554,-8.01048 -18.7337,-6.48984 -3.80768,1.28153 0.4545,6.03673 -6.32629,3.46849 z"
         id="path3845"
         inkscape:connector-curvature="0"
         sodipodi:nodetypes="cccccsscc" />
    </g>
    <path
       sodipodi:nodetypes="cccccccccssssssccccccc"
       inkscape:connector-curvature="0"
       id="path3841"
       d="m 488.10218,221.35198 c 9.04098,2.21596 1.93447,1.99748 24.71878,5.24338 4.61916,4.26177 8.39564,9.09685 13.0148,13.8575 3.09074,11.89609 3.17084,6.86995 7.11602,18.07093 -2.00485,-0.0189 -3.78813,-0.64016 -6.74149,-0.74906 -1.00272,-3.19936 -2.88198,-6.86514 -4.86885,-11.23581 -2.30177,-0.90789 -4.91625,-3.37938 -7.45171,-5.45576 -0.81339,-0.67332 -0.79631,-0.76513 -0.72995,0.29654 1.2398,1.33068 0.47729,7.33341 0.69112,11.05802 -2.01335,1.20534 -2.64805,1.66 -8.27935,1.53332 -0.17132,-0.004 -0.008,-1.28533 -0.18985,-1.29073 -0.15065,-0.004 -0.65714,1.30143 -0.81497,1.29663 -1.61143,-0.0512 -3.15019,-0.11485 -5.64244,-0.25082 -0.16569,-0.009 -0.0959,-1.01141 -0.37833,-1.02086 -0.30078,-0.0101 -0.40611,1.01553 -0.5928,1.00498 -1.75676,-0.0992 -2.95921,-0.19609 -5.22714,-0.33774 -1.08838,0.0367 -1.6558,-0.1415 -1.86166,-1.18664 l -1.5896,-4.26078 c -0.31333,-1.27429 -0.59231,-1.41005 -1.75799,-1.77993 l -8.49687,-2.69612 c 1.4098,-8.21667 0.11947,-16.63071 9.08228,-22.09709 z"
       style="fill:#000000;stroke:#000000;stroke-width:1px;stroke-linecap:butt;stroke-linejoin:miter;stroke-opacity:1" />
  </g>
</svg>
