<?xml version="1.0" encoding="UTF-8" standalone="no"?>
<!-- Created with Inkscape (http://www.inkscape.org/) --><svg height="816.89001pt" id="svg1310" inkscape:version="0.43" sodipodi:docbase="/home/alexandra/SVG" sodipodi:docname="tix3.svg" sodipodi:version="0.32" version="1.0" width="210mm" xmlns="http://www.w3.org/2000/svg" xmlns:cc="http://web.resource.org/cc/" xmlns:dc="http://purl.org/dc/elements/1.1/" xmlns:inkscape="http://www.inkscape.org/namespaces/inkscape" xmlns:rdf="http://www.w3.org/1999/02/22-rdf-syntax-ns#" xmlns:sodipodi="http://inkscape.sourceforge.net/DTD/sodipodi-0.dtd" xmlns:svg="http://www.w3.org/2000/svg" xmlns:xlink="http://www.w3.org/1999/xlink">
  <metadata>
    <rdf:RDF xmlns:cc="http://web.resource.org/cc/" xmlns:dc="http://purl.org/dc/elements/1.1/" xmlns:rdf="http://www.w3.org/1999/02/22-rdf-syntax-ns#">
      <cc:Work rdf:about="">
        <dc:title>public domain</dc:title>
        <dc:description></dc:description>
        <dc:subject>
          <rdf:Bag>
            <rdf:li>unsorted</rdf:li>
          </rdf:Bag>
        </dc:subject>
        <dc:publisher>
          <cc:Agent rdf:about="http://www.openclipart.org/">
            <dc:title>Open Clip Art Library</dc:title>
          </cc:Agent>
        </dc:publisher>
        <dc:creator>
          <cc:Agent>
            <dc:title>public domain</dc:title>
          </cc:Agent>
        </dc:creator>
        <dc:rights>
          <cc:Agent>
            <dc:title>public domain</dc:title>
          </cc:Agent>
        </dc:rights>
        <dc:date></dc:date>
        <dc:format>image/svg+xml</dc:format>
        <dc:type rdf:resource="http://purl.org/dc/dcmitype/StillImage"/>
        <cc:license rdf:resource="http://web.resource.org/cc/PublicDomain"/>
        <dc:language>en</dc:language>
      </cc:Work>
      <cc:License rdf:about="http://web.resource.org/cc/PublicDomain">
        <cc:permits rdf:resource="http://web.resource.org/cc/Reproduction"/>
        <cc:permits rdf:resource="http://web.resource.org/cc/Distribution"/>
        <cc:permits rdf:resource="http://web.resource.org/cc/DerivativeWorks"/>
      </cc:License>
    </rdf:RDF>
  </metadata>
  <defs id="defs1312">
    <linearGradient id="linearGradient23320">
      <stop id="stop23330" offset="0" style="stop-color:#544be0;stop-opacity:0.99607843;"/>
      <stop id="stop23324" offset="1" style="stop-color:#e92916;stop-opacity:0.99607843;"/>
    </linearGradient>
    <linearGradient id="linearGradient21540">
      <stop id="stop21546" offset="0" style="stop-color:#feff5e;stop-opacity:0.99607843;"/>
      <stop id="stop21544" offset="1" style="stop-color:#f5ed00;stop-opacity:1;"/>
    </linearGradient>
    <linearGradient id="linearGradient13612">
      <stop id="stop13614" offset="0" style="stop-color:#ffffff;stop-opacity:0.85714287;"/>
      <stop id="stop13616" offset="1" style="stop-color:#ffffff;stop-opacity:0;"/>
    </linearGradient>
    <linearGradient id="linearGradient4839">
      <stop id="stop4841" offset="0" style="stop-color:#ffffff;stop-opacity:1;"/>
      <stop id="stop4847" offset="1" style="stop-color:#f6f6f6;stop-opacity:1;"/>
    </linearGradient>
    <radialGradient cx="-364.04224" cy="477.58539" fx="-364.04224" fy="477.58539" gradientTransform="matrix(1,0,0,0.625,2.22988e-13,177.7095)" gradientUnits="userSpaceOnUse" id="radialGradient5733" inkscape:collect="always" r="54.444252" xlink:href="#linearGradient4839"/>
    <radialGradient cx="603.96863" cy="289.37299" fx="603.96863" fy="289.37299" gradientTransform="matrix(1,-2.784368e-17,1.231184e-15,0.834485,8.272153e-13,47.89551)" gradientUnits="userSpaceOnUse" id="radialGradient26028" inkscape:collect="always" r="49.090096" xlink:href="#linearGradient13612"/>
    <radialGradient cx="603.96863" cy="289.37299" fx="603.96863" fy="289.37299" gradientTransform="matrix(1,-1.988834e-17,8.794175e-16,0.834485,5.181455e-13,47.89551)" gradientUnits="userSpaceOnUse" id="radialGradient26030" inkscape:collect="always" r="49.090096" xlink:href="#linearGradient13612"/>
    <radialGradient cx="-364.04224" cy="477.58539" fx="-364.04224" fy="477.58539" gradientTransform="matrix(1,0,0,0.625,2.6501e-13,177.7095)" gradientUnits="userSpaceOnUse" id="radialGradient26032" inkscape:collect="always" r="54.444252" xlink:href="#linearGradient4839"/>
    <radialGradient cx="-364.04224" cy="477.58539" fx="-364.04224" fy="477.58539" gradientTransform="matrix(1,0,0,0.625,-7.105432e-14,177.7095)" gradientUnits="userSpaceOnUse" id="radialGradient26034" inkscape:collect="always" r="54.444252" xlink:href="#linearGradient4839"/>
    <radialGradient cx="603.96863" cy="289.37299" fx="603.96863" fy="289.37299" gradientTransform="matrix(1,0,0,0.834485,4.726774e-14,47.89551)" gradientUnits="userSpaceOnUse" id="radialGradient26036" inkscape:collect="always" r="49.090096" xlink:href="#linearGradient13612"/>
    <radialGradient cx="603.96863" cy="289.37299" fx="603.96863" fy="289.37299" gradientTransform="matrix(1,1.299688e-17,7.450621e-16,0.834485,1.236324e-13,47.89551)" gradientUnits="userSpaceOnUse" id="radialGradient26038" inkscape:collect="always" r="49.090096" xlink:href="#linearGradient13612"/>
    <radialGradient cx="603.96863" cy="289.37299" fx="603.96863" fy="289.37299" gradientTransform="matrix(1,-1.715079e-17,8.279296e-15,0.834485,-4.696173e-13,47.89551)" gradientUnits="userSpaceOnUse" id="radialGradient26040" inkscape:collect="always" r="49.090096" xlink:href="#linearGradient13612"/>
    <radialGradient cx="603.96863" cy="289.37299" fx="603.96863" fy="289.37299" gradientTransform="matrix(1,0,0,0.834485,-4.697631e-14,47.89551)" gradientUnits="userSpaceOnUse" id="radialGradient26042" inkscape:collect="always" r="49.090096" xlink:href="#linearGradient13612"/>
    <radialGradient cx="603.96863" cy="289.37299" fx="603.96863" fy="289.37299" gradientTransform="matrix(1,0,0,0.834485,3.896535e-14,47.89551)" gradientUnits="userSpaceOnUse" id="radialGradient26044" inkscape:collect="always" r="49.090096" xlink:href="#linearGradient13612"/>
    <linearGradient gradientTransform="matrix(1,-3.599479e-2,9.108896e-2,1,925.5457,-102.8685)" gradientUnits="userSpaceOnUse" id="linearGradient26046" inkscape:collect="always" spreadMethod="reflect" x1="-503.8284" x2="-480.83029" xlink:href="#linearGradient23320" y1="650.64246" y2="650.81665"/>
    <radialGradient cx="-307.21133" cy="521.82349" fx="-307.21133" fy="521.82349" gradientTransform="matrix(1,-3.882798e-18,-1.523252e-17,0.980769,2.826587e-14,10.03506)" gradientUnits="userSpaceOnUse" id="radialGradient26048" inkscape:collect="always" r="56.648895" spreadMethod="reflect" xlink:href="#linearGradient21540"/>
    <radialGradient cx="649.60156" cy="428.939" fx="649.60156" fy="428.939" gradientTransform="matrix(1,0,0,0.97953,-3.150816e-13,8.78023)" gradientUnits="userSpaceOnUse" id="radialGradient26050" inkscape:collect="always" r="13.184367" xlink:href="#linearGradient13612"/>
  </defs>
  <sodipodi:namedview bordercolor="#666666" borderopacity="1.0" id="base" inkscape:current-layer="layer1" inkscape:cx="4.2268585" inkscape:cy="487.49119" inkscape:document-units="px" inkscape:guide-bbox="true" inkscape:pageopacity="0.0" inkscape:pageshadow="2" inkscape:window-height="666" inkscape:window-width="1024" inkscape:window-x="0" inkscape:window-y="36" inkscape:zoom="0.45795271" pagecolor="#ffffff" showguides="true"/>
  <g id="layer1" inkscape:groupmode="layer" inkscape:label="Ebene 1">
    <g id="g25987" transform="matrix(1.24922,0,0,1.24922,-116.8963,-177.5649)">
      <path d="M -753.50644 505.86304 A 436.78531 178.02625 0 1 1  -1627.0771,505.86304 A 436.78531 178.02625 0 1 1  -753.50644 505.86304 z" id="path15384" sodipodi:cx="-1190.2917" sodipodi:cy="505.86304" sodipodi:rx="436.78531" sodipodi:ry="178.02625" sodipodi:type="arc" style="opacity:1;fill:#c9c9c9;fill-opacity:0.97971018;fill-rule:evenodd;stroke:none;stroke-width:3;stroke-linecap:round;stroke-linejoin:miter;stroke-miterlimit:4;stroke-dasharray:none;stroke-dashoffset:0;stroke-opacity:1" transform="matrix(0.516587,0,0,0.569768,1014.414,480.5378)"/>
      <g id="g16263" style="fill:#898989;fill-opacity:0.79710143;stroke:none" transform="translate(9,0)">
        <path d="M 304.99582,695.19543 C 305.33332,696.74251 203.21124,740.6767 203.649,751.63635 C 204.00327,760.50589 228.72129,759.3085 272.69195,744.20565 C 253.69259,771.10463 251.22045,813.02257 257.36561,817.01803 C 264.17958,821.44836 295.56829,793.19144 312.91103,758.42033 C 331.78499,778.16428 362.33138,820.39824 371.39746,814.66973 C 381.02177,808.58849 346.84486,744.89311 339.65008,722.84755 C 341.98412,720.94508 348.10002,709.42974 347.00879,708.56478 L 304.99582,695.19543 z " id="path16265" sodipodi:nodetypes="cscscsccc" style="fill:#898989;fill-opacity:0.79710143;fill-rule:evenodd;stroke:none;stroke-width:3;stroke-linecap:butt;stroke-linejoin:miter;stroke-miterlimit:4;stroke-dasharray:none;stroke-opacity:1"/>
        <path d="M 504.48133,701.57526 C 504.0723,703.10498 503.81164,704.38255 503.69927,705.38951 C 528.49537,713.06901 590.99545,733.46929 590.04892,744.39676 C 589.28292,753.24026 552.49518,745.68244 520.77861,747.6798 C 538.5076,775.43252 539.02937,817.42006 532.70521,821.12567 C 525.69275,825.2346 495.65087,795.54974 479.94249,760.01037 C 460.17152,778.85602 427.69574,819.62504 418.90563,813.48146 C 409.57428,806.9596 446.67385,744.92104 454.8852,723.23359 C 452.64208,721.22473 447.06783,709.43765 448.19807,708.62433 L 504.48133,701.57526 z " id="path16267" sodipodi:nodetypes="ccscscsccc" style="fill:#898989;fill-opacity:0.79710143;fill-rule:evenodd;stroke:none;stroke-width:3;stroke-linecap:butt;stroke-linejoin:miter;stroke-miterlimit:4;stroke-dasharray:none;stroke-opacity:1"/>
      </g>
      <path d="M 168.25051 258.54199 A 67.121208 47.432323 0 1 1  34.008095,258.54199 A 67.121208 47.432323 0 1 1  168.25051 258.54199 z" id="path17142" sodipodi:cx="101.1293" sodipodi:cy="258.54199" sodipodi:rx="67.121208" sodipodi:ry="47.432323" sodipodi:type="arc" style="opacity:1;fill:#898989;fill-opacity:0.79710143;fill-rule:evenodd;stroke:none;stroke-width:3;stroke-linecap:round;stroke-linejoin:miter;stroke-miterlimit:4;stroke-dasharray:none;stroke-dashoffset:0;stroke-opacity:1" transform="matrix(1.453333,0,0,1,252.9163,458.1637)"/>
      <g id="g16259" style="fill:#fff101;fill-opacity:1">
        <path d="M 304.99582,695.19543 C 305.33332,696.74251 207.08035,734.48612 207.51811,745.44577 C 207.87238,754.31531 238.78098,751.57027 272.69195,744.20565 C 253.69259,771.10463 251.22045,813.02257 257.36561,817.01803 C 264.17958,821.44836 295.56829,793.19144 312.91103,758.42033 C 331.78499,778.16428 362.33138,820.39824 371.39746,814.66973 C 381.02177,808.58849 346.84486,744.89311 339.65008,722.84755 C 341.98412,720.94508 348.10002,709.42974 347.00879,708.56478 L 304.99582,695.19543 z " id="path1328" sodipodi:nodetypes="cscscsccc" style="fill:#fff101;fill-opacity:1;fill-rule:evenodd;stroke:#000000;stroke-width:3;stroke-linecap:butt;stroke-linejoin:miter;stroke-miterlimit:4;stroke-dasharray:none;stroke-opacity:1"/>
        <path d="M 504.48133,701.57526 C 504.0723,703.10498 503.81164,704.38255 503.69927,705.38951 C 528.49537,713.06901 590.99545,733.46929 590.04892,744.39676 C 589.28292,753.24026 552.49518,745.68244 520.77861,747.6798 C 538.5076,775.43252 539.02937,817.42006 532.70521,821.12567 C 525.69275,825.2346 495.65087,795.54974 479.94249,760.01037 C 460.17152,778.85602 427.69574,819.62504 418.90563,813.48146 C 409.57428,806.9596 446.67385,744.92104 454.8852,723.23359 C 452.64208,721.22473 447.06783,709.43765 448.19807,708.62433 L 504.48133,701.57526 z " id="path1337" sodipodi:nodetypes="ccscscsccc" style="fill:#fff101;fill-opacity:1;fill-rule:evenodd;stroke:#000000;stroke-width:3;stroke-linecap:butt;stroke-linejoin:miter;stroke-miterlimit:4;stroke-dasharray:none;stroke-opacity:1"/>
      </g>
      <path d="M 651.55872 289.37299 A 47.590096 39.464958 0 1 1  556.37853,289.37299 A 47.590096 39.464958 0 1 1  651.55872 289.37299 z" id="path17149" sodipodi:cx="603.96863" sodipodi:cy="289.37299" sodipodi:rx="47.590096" sodipodi:ry="39.464958" sodipodi:type="arc" style="opacity:1;fill:url(#radialGradient26028);fill-opacity:1;fill-rule:evenodd;stroke:none;stroke-width:3;stroke-linecap:round;stroke-linejoin:miter;stroke-miterlimit:4;stroke-dasharray:none;stroke-dashoffset:0;stroke-opacity:1" transform="matrix(0.225985,-0.122617,0.589802,1.087016,199.7791,526.3202)"/>
      <path d="M 651.55872 289.37299 A 47.590096 39.464958 0 1 1  556.37853,289.37299 A 47.590096 39.464958 0 1 1  651.55872 289.37299 z" id="path17153" sodipodi:cx="603.96863" sodipodi:cy="289.37299" sodipodi:rx="47.590096" sodipodi:ry="39.464958" sodipodi:type="arc" style="opacity:1;fill:url(#radialGradient26030);fill-opacity:1;fill-rule:evenodd;stroke:none;stroke-width:3;stroke-linecap:round;stroke-linejoin:miter;stroke-miterlimit:4;stroke-dasharray:none;stroke-dashoffset:0;stroke-opacity:1" transform="matrix(-0.225985,-0.122617,-0.589802,1.087016,591.3702,520.9034)"/>
      <path d="M 577.14285 526.64789 A 177.14285 197.14285 0 1 1  222.85715,526.64789 A 177.14285 197.14285 0 1 1  577.14285 526.64789 z" id="path1318" sodipodi:cx="400" sodipodi:cy="526.64789" sodipodi:rx="177.14285" sodipodi:ry="197.14285" sodipodi:type="arc" style="opacity:1;fill:#000000;fill-opacity:1;fill-rule:evenodd;stroke:none;stroke-width:3;stroke-linecap:round;stroke-linejoin:miter;stroke-miterlimit:4;stroke-dasharray:none;stroke-dashoffset:0;stroke-opacity:1" transform="matrix(1,0,0,1.075946,0,-25.02452)"/>
      <path d="M -42.85714 233.79076 A 105.71429 115.71429 0 1 1  -254.28571,233.79076 A 105.71429 115.71429 0 1 1  -42.85714 233.79076 z" id="path1320" sodipodi:cx="-148.57143" sodipodi:cy="233.79076" sodipodi:rx="105.71429" sodipodi:ry="115.71429" sodipodi:type="arc" style="opacity:1;fill:#000000;fill-opacity:1;fill-rule:evenodd;stroke:none;stroke-width:3;stroke-linecap:round;stroke-linejoin:miter;stroke-miterlimit:4;stroke-dasharray:none;stroke-dashoffset:0;stroke-opacity:1" transform="matrix(1,0,0,0.93774,548.5714,76.04581)"/>
      <path d="M -445.71429 646.64789 A 60 185.71428 0 1 1  -565.71429,646.64789 A 60 185.71428 0 1 1  -445.71429 646.64789 z" id="path1322" sodipodi:cx="-505.71429" sodipodi:cy="646.64789" sodipodi:rx="60" sodipodi:ry="185.71428" sodipodi:type="arc" style="opacity:1;fill:#000000;fill-opacity:1;fill-rule:evenodd;stroke:none;stroke-width:3;stroke-linecap:round;stroke-linejoin:miter;stroke-miterlimit:4;stroke-dasharray:none;stroke-dashoffset:0;stroke-opacity:1" transform="matrix(0.565501,0.538938,-0.55037,0.553755,885.6943,371.8993)"/>
      <path d="M -445.71429 646.64789 A 60 185.71428 0 1 1  -565.71429,646.64789 A 60 185.71428 0 1 1  -445.71429 646.64789 z" id="path1324" sodipodi:cx="-505.71429" sodipodi:cy="646.64789" sodipodi:rx="60" sodipodi:ry="185.71428" sodipodi:type="arc" style="opacity:1;fill:#000000;fill-opacity:1;fill-rule:evenodd;stroke:none;stroke-width:3;stroke-linecap:round;stroke-linejoin:miter;stroke-miterlimit:4;stroke-dasharray:none;stroke-dashoffset:0;stroke-opacity:1" transform="matrix(-0.5272,0.495645,0.481096,0.543143,-21.47564,361.2057)"/>
      <path d="M -405.71428 616.64789 A 81.428574 92.85714 0 1 1  -568.57143,616.64789 A 81.428574 92.85714 0 1 1  -405.71428 616.64789 z" id="path1326" sodipodi:cx="-487.14285" sodipodi:cy="616.64789" sodipodi:rx="81.428574" sodipodi:ry="92.85714" sodipodi:type="arc" style="opacity:1;fill:#ffffff;fill-opacity:1;fill-rule:evenodd;stroke:none;stroke-width:3;stroke-linecap:round;stroke-linejoin:miter;stroke-miterlimit:4;stroke-dasharray:none;stroke-dashoffset:0;stroke-opacity:1" transform="matrix(1.35664,0,0,1.700879,1061.613,-478.5627)"/>
      <g id="g3962" style="fill:url(#radialGradient5733);fill-opacity:1" transform="matrix(1.343698,0,0,1.343698,849.4039,-348.4869)">
        <path d="M -340.27657 473.892 A 23.138807 34.027657 0 1 1  -386.55418,473.892 A 23.138807 34.027657 0 1 1  -340.27657 473.892 z" id="path3958" sodipodi:cx="-363.41537" sodipodi:cy="473.892" sodipodi:rx="23.138807" sodipodi:ry="34.027657" sodipodi:type="arc" style="opacity:1;fill:url(#radialGradient26032);fill-opacity:1;fill-rule:evenodd;stroke:none;stroke-width:3;stroke-linecap:round;stroke-linejoin:miter;stroke-miterlimit:4;stroke-dasharray:none;stroke-dashoffset:0;stroke-opacity:1"/>
        <path d="M -340.27657 473.892 A 23.138807 34.027657 0 1 1  -386.55418,473.892 A 23.138807 34.027657 0 1 1  -340.27657 473.892 z" id="path3960" sodipodi:cx="-363.41537" sodipodi:cy="473.892" sodipodi:rx="23.138807" sodipodi:ry="34.027657" sodipodi:type="arc" style="opacity:1;fill:url(#radialGradient26034);fill-opacity:1;fill-rule:evenodd;stroke:none;stroke-width:3;stroke-linecap:round;stroke-linejoin:miter;stroke-miterlimit:4;stroke-dasharray:none;stroke-dashoffset:0;stroke-opacity:1" transform="translate(62.61089,0)"/>
      </g>
      <path d="M -478.59995 501.04889 A 13.273069 13.080707 0 1 1  -505.14609,501.04889 A 13.273069 13.080707 0 1 1  -478.59995 501.04889 z" id="path4849" sodipodi:cx="-491.87302" sodipodi:cy="501.04889" sodipodi:rx="13.273069" sodipodi:ry="13.080707" sodipodi:type="arc" style="fill:#000000;fill-opacity:1;fill-rule:evenodd;stroke:none;stroke-width:3;stroke-linecap:round;stroke-linejoin:miter;stroke-miterlimit:4;stroke-dasharray:none;stroke-dashoffset:0;stroke-opacity:1" transform="matrix(1.343698,0,0,1.343698,1024.135,-363.6143)"/>
      <path d="M -478.59995 501.04889 A 13.273069 13.080707 0 1 1  -505.14609,501.04889 A 13.273069 13.080707 0 1 1  -478.59995 501.04889 z" id="path4851" sodipodi:cx="-491.87302" sodipodi:cy="501.04889" sodipodi:rx="13.273069" sodipodi:ry="13.080707" sodipodi:type="arc" style="fill:#000000;fill-opacity:1;fill-rule:evenodd;stroke:none;stroke-width:3;stroke-linecap:round;stroke-linejoin:miter;stroke-miterlimit:4;stroke-dasharray:none;stroke-dashoffset:0;stroke-opacity:1" transform="matrix(1.343698,0,0,1.343698,1102.611,-363.6143)"/>
      <path d="M 470.56879,343.87422 C 450.88208,352.85463 434.44047,359.08249 403.16462,358.63197 C 375.27878,358.23028 360.485,356.81584 337.3586,345.16932 C 360.81092,381.3583 369.84292,396.44699 403.8712,396.447 C 438.40561,396.447 453.41815,372.76983 470.56879,343.87422 z " id="path10109" sodipodi:nodetypes="cscsc" style="opacity:1;fill:#fff101;fill-opacity:1;fill-rule:evenodd;stroke:#000000;stroke-width:1.42188621;stroke-linecap:round;stroke-linejoin:miter;stroke-miterlimit:4;stroke-dasharray:none;stroke-dashoffset:0;stroke-opacity:1"/>
      <path d="M 330.21105,329.78217 C 351.60115,354.93198 369.31677,373.8701 373.14965,380.24112 C 379.93465,391.5192 390.23516,441.19212 404.47245,441.53908 C 418.70976,441.88605 426.96048,394.84671 434.41277,383.91561 C 438.72113,377.59606 445.2019,361.4655 481.02888,332.17296 C 429.69779,354.62238 425.09758,325.61811 405.54049,325.57421 C 382.63992,325.52281 369.55069,354.11041 330.21105,329.78217 z " id="path8358" sodipodi:nodetypes="cssscsc" style="fill:#fff101;fill-opacity:1;fill-rule:evenodd;stroke:#000000;stroke-width:3;stroke-linecap:butt;stroke-linejoin:miter;stroke-miterlimit:4;stroke-dasharray:none;stroke-opacity:1"/>
      <path d="M 606.67701 264.61066 A 7.7382274 8.5120497 0 1 1  591.20055,264.61066 A 7.7382274 8.5120497 0 1 1  606.67701 264.61066 z" id="path10987" sodipodi:cx="598.93878" sodipodi:cy="264.61066" sodipodi:rx="7.7382274" sodipodi:ry="8.5120497" sodipodi:type="arc" style="opacity:1;fill:#ffffff;fill-opacity:0.72463768;fill-rule:evenodd;stroke:#000000;stroke-width:3;stroke-linecap:round;stroke-linejoin:miter;stroke-miterlimit:4;stroke-dasharray:none;stroke-dashoffset:0;stroke-opacity:1" transform="translate(-240.413,39.69169)"/>
      <path d="M 606.67701 264.61066 A 7.7382274 8.5120497 0 1 1  591.20055,264.61066 A 7.7382274 8.5120497 0 1 1  606.67701 264.61066 z" id="path11862" sodipodi:cx="598.93878" sodipodi:cy="264.61066" sodipodi:rx="7.7382274" sodipodi:ry="8.5120497" sodipodi:type="arc" style="opacity:1;fill:#ffffff;fill-opacity:0.72463768;fill-rule:evenodd;stroke:#000000;stroke-width:3;stroke-linecap:round;stroke-linejoin:miter;stroke-miterlimit:4;stroke-dasharray:none;stroke-dashoffset:0;stroke-opacity:1" transform="translate(-162.0499,39.91787)"/>
      <path d="M 651.55872 289.37299 A 47.590096 39.464958 0 1 1  556.37853,289.37299 A 47.590096 39.464958 0 1 1  651.55872 289.37299 z" id="path12737" sodipodi:cx="603.96863" sodipodi:cy="289.37299" sodipodi:rx="47.590096" sodipodi:ry="39.464958" sodipodi:type="arc" style="opacity:1;fill:url(#radialGradient26036);fill-opacity:1;fill-rule:evenodd;stroke:none;stroke-width:3;stroke-linecap:round;stroke-linejoin:miter;stroke-miterlimit:4;stroke-dasharray:none;stroke-dashoffset:0;stroke-opacity:1" transform="matrix(0.975609,0,0,0.852941,-225.5409,-25.15463)"/>
      <path d="M 651.55872 289.37299 A 47.590096 39.464958 0 1 1  556.37853,289.37299 A 47.590096 39.464958 0 1 1  651.55872 289.37299 z" id="path14493" sodipodi:cx="603.96863" sodipodi:cy="289.37299" sodipodi:rx="47.590096" sodipodi:ry="39.464958" sodipodi:type="arc" style="opacity:1;fill:url(#radialGradient26038);fill-opacity:1;fill-rule:evenodd;stroke:none;stroke-width:3;stroke-linecap:round;stroke-linejoin:miter;stroke-miterlimit:4;stroke-dasharray:none;stroke-dashoffset:0;stroke-opacity:1" transform="matrix(0.236695,-0.498328,1.717436,2.155234,-73.88547,151.2369)"/>
      <path d="M 651.55872 289.37299 A 47.590096 39.464958 0 1 1  556.37853,289.37299 A 47.590096 39.464958 0 1 1  651.55872 289.37299 z" id="path14497" sodipodi:cx="603.96863" sodipodi:cy="289.37299" sodipodi:rx="47.590096" sodipodi:ry="39.464958" sodipodi:type="arc" style="opacity:1;fill:url(#radialGradient26040);fill-opacity:1;fill-rule:evenodd;stroke:none;stroke-width:3;stroke-linecap:round;stroke-linejoin:miter;stroke-miterlimit:4;stroke-dasharray:none;stroke-dashoffset:0;stroke-opacity:1" transform="matrix(-0.186701,-0.519132,-1.920455,1.97648,892.6406,207.0164)"/>
      <path d="M 651.55872 289.37299 A 47.590096 39.464958 0 1 1  556.37853,289.37299 A 47.590096 39.464958 0 1 1  651.55872 289.37299 z" id="path14501" sodipodi:cx="603.96863" sodipodi:cy="289.37299" sodipodi:rx="47.590096" sodipodi:ry="39.464958" sodipodi:type="arc" style="opacity:1;fill:url(#radialGradient26042);fill-opacity:1;fill-rule:evenodd;stroke:none;stroke-width:3;stroke-linecap:round;stroke-linejoin:miter;stroke-miterlimit:4;stroke-dasharray:none;stroke-dashoffset:0;stroke-opacity:1" transform="matrix(1.983739,0,0,2.990196,-883.1707,-293.0769)"/>
      <path d="M 651.55872 289.37299 A 47.590096 39.464958 0 1 1  556.37853,289.37299 A 47.590096 39.464958 0 1 1  651.55872 289.37299 z" id="path15380" sodipodi:cx="603.96863" sodipodi:cy="289.37299" sodipodi:rx="47.590096" sodipodi:ry="39.464958" sodipodi:type="arc" style="opacity:1;fill:url(#radialGradient26044);fill-opacity:1;fill-rule:evenodd;stroke:none;stroke-width:3;stroke-linecap:round;stroke-linejoin:miter;stroke-miterlimit:4;stroke-dasharray:none;stroke-dashoffset:0;stroke-opacity:1" transform="matrix(0.753042,0,0,0.599462,-48.72718,199.8595)"/>
      <path d="M 76.945334 325.89789 A 2.6763594 3.8472664 0 1 1  71.592615,325.89789 A 2.6763594 3.8472664 0 1 1  76.945334 325.89789 z" id="path18032" sodipodi:cx="74.268974" sodipodi:cy="325.89789" sodipodi:rx="2.6763594" sodipodi:ry="3.8472664" sodipodi:type="arc" style="opacity:1;fill:#000000;fill-opacity:1;fill-rule:evenodd;stroke:none;stroke-width:3;stroke-linecap:round;stroke-linejoin:miter;stroke-miterlimit:4;stroke-dasharray:none;stroke-dashoffset:0;stroke-opacity:1" transform="translate(315.9131,41.82512)"/>
      <path d="M 76.945334 325.89789 A 2.6763594 3.8472664 0 1 1  71.592615,325.89789 A 2.6763594 3.8472664 0 1 1  76.945334 325.89789 z" id="path18907" sodipodi:cx="74.268974" sodipodi:cy="325.89789" sodipodi:rx="2.6763594" sodipodi:ry="3.8472664" sodipodi:type="arc" style="opacity:1;fill:#000000;fill-opacity:1;fill-rule:evenodd;stroke:none;stroke-width:3;stroke-linecap:round;stroke-linejoin:miter;stroke-miterlimit:4;stroke-dasharray:none;stroke-dashoffset:0;stroke-opacity:1" transform="translate(346.4146,42.15966)"/>
      <path d="M 400.95439,497.47601 L 499.00056,493.94686 L 511.99471,636.60017 L 493.52902,637.00623 L 491.07573,612.26763 L 478.71445,612.19535 L 480.81627,637.46383 L 468.24417,637.91636 L 465.88481,614.20883 L 454.29682,614.10871 L 456.29298,638.21722 L 442.93584,638.56871 C 441.3726,633.02168 441.16028,613.82002 439.86162,614.11108 L 425.07501,614.3847 L 427.2119,639.3933 L 413.92506,639.87156 L 400.95439,497.47601 z " id="rect22442" sodipodi:nodetypes="ccccccccccccccccc" style="fill:url(#linearGradient26046);fill-opacity:1;fill-rule:evenodd;stroke:#505050;stroke-width:1.00163805;stroke-linecap:round;stroke-linejoin:miter;stroke-miterlimit:4;stroke-dashoffset:0;stroke-opacity:1"/>
      <g id="g22433" transform="matrix(1,-3.599479e-2,9.108896e-2,1,698.4513,-39.88677)">
        <g id="g22425">
          <path d="M -250.56244 521.82349 A 56.648895 55.559494 0 1 1  -363.86023,521.82349 A 56.648895 55.559494 0 1 1  -250.56244 521.82349 z" id="path21548" sodipodi:cx="-307.21133" sodipodi:cy="521.82349" sodipodi:rx="56.648895" sodipodi:ry="55.559494" sodipodi:type="arc" style="opacity:1;fill:#ffdd1e;fill-opacity:1;fill-rule:evenodd;stroke:#505050;stroke-width:1;stroke-linecap:round;stroke-linejoin:miter;stroke-miterlimit:4;stroke-dasharray:none;stroke-dashoffset:0;stroke-opacity:1" transform="matrix(1.1525,0,0,1.174897,55.56499,-81.46345)"/>
          <path d="M -250.56244 521.82349 A 56.648895 55.559494 0 1 1  -363.86023,521.82349 A 56.648895 55.559494 0 1 1  -250.56244 521.82349 z" id="path19784" sodipodi:cx="-307.21133" sodipodi:cy="521.82349" sodipodi:rx="56.648895" sodipodi:ry="55.559494" sodipodi:type="arc" style="opacity:1;fill:url(#radialGradient26048);fill-opacity:1;fill-rule:evenodd;stroke:#505050;stroke-width:1;stroke-linecap:round;stroke-linejoin:miter;stroke-miterlimit:4;stroke-dasharray:none;stroke-dashoffset:0;stroke-opacity:1" transform="translate(8.715262,9.801912)"/>
        </g>
        <text id="text22429" sodipodi:linespacing="100%" space="preserve" style="font-size:72px;font-style:normal;font-variant:normal;font-weight:bold;font-stretch:normal;text-align:center;line-height:100%;writing-mode:lr-tb;text-anchor:middle;fill:#000000;fill-opacity:1;stroke:none;stroke-width:1px;stroke-linecap:butt;stroke-linejoin:miter;stroke-opacity:1;font-family:Bell MT" x="-298.49612" y="555.70093">
          <tspan id="tspan22431" sodipodi:role="line" x="-298.49612" y="555.70093">#1</tspan>
        </text>
      </g>
      <path d="M 662.28593 428.939 A 12.684367 12.414488 0 1 1  636.9172,428.939 A 12.684367 12.414488 0 1 1  662.28593 428.939 z" id="path24227" sodipodi:cx="649.60156" sodipodi:cy="428.939" sodipodi:rx="12.684367" sodipodi:ry="12.414488" sodipodi:type="arc" style="opacity:1;fill:url(#radialGradient26050);fill-opacity:1;fill-rule:evenodd;stroke:none;stroke-width:1;stroke-linecap:round;stroke-linejoin:miter;stroke-miterlimit:4;stroke-dasharray:none;stroke-dashoffset:0;stroke-opacity:1" transform="matrix(3.234043,0,0,2.869565,-1668.315,-745.7775)"/>
    </g>
  </g>
</svg>
