<?xml version="1.0" encoding="utf-8"?>
<!-- Generator: Adobe Illustrator 12.0.1, SVG Export Plug-In . SVG Version: 6.00 Build 51448)  -->
<!DOCTYPE svg PUBLIC "-//W3C//DTD SVG 1.1//EN" "http://www.w3.org/Graphics/SVG/1.1/DTD/svg11.dtd" [
	<!ENTITY ns_svg "http://www.w3.org/2000/svg">
	<!ENTITY ns_xlink "http://www.w3.org/1999/xlink">
]>
<svg  version="1.1" id="Layer_1" xmlns="&ns_svg;" xmlns:xlink="&ns_xlink;" width="404.64" height="310.734"
	 viewBox="0 0 404.64 310.734" overflow="visible" enable-background="new 0 0 404.64 310.734" xml:space="preserve">
<g>
	<path fill-rule="evenodd" clip-rule="evenodd" fill="#FFFFFF" d="M334.56,69.631c-5.088-3.696-13.127-6.514-11.04-15.84
		c4.307,0.073,6.452,4.668,10.08,3.84c0.691-0.109,0.168-1.433,0.96-1.44c-1.45-4.309-6.246-5.273-9.6-7.68
		c-0.471-7.558,1.71-15.462-3.36-17.76c-6.972-1.467-10.015,8.59-14.88,9.12c-3.235,0.353-4.211-2.722-8.64-2.4
		c0.405,5.035,4.95,5.93,7.2,9.12c-1.852,3.281-0.817,7.792-3.36,11.04c1.011,3.469,5.366,3.594,4.8,8.64
		c1.031,0.89,3.517,0.324,5.28,0.48c0.403,1.196,0.628,2.572,0.48,4.32c-3.058,0.599-5.172-0.634-7.2-0.48
		c-1.291,0.098-2.189,1.106-3.36,0.96c-2.851-0.355-8.494-4.582-10.56-6.72c-1.889-1.955-4.401-5.452-6.24-8.16
		c-13.619-20.058-0.864-50.03,22.56-55.2c4.206-0.928,9.712-1.269,14.88-0.48c1.872,0.286,5.275,1.252,7.681,2.4
		c2.114,1.009,8.099,3.74,10.08,5.76c0.715,0.729,0.732,2.173,1.439,2.88c0.231,0.231,1.227-0.244,1.44,0
		c0.51,0.581,1.485,2.339,2.399,3.36C359.064,30.409,353.644,60.122,334.56,69.631z"/>
	<path fill-rule="evenodd" clip-rule="evenodd" fill="#FFFFFF" d="M103.2,47.071c0.48,0,0.96,0,1.44,0
		c0.496,1.594,1.594,6.28-1.92,5.28C102.672,50.383,102.625,48.417,103.2,47.071z"/>
	<path fill-rule="evenodd" clip-rule="evenodd" fill="#FFFFFF" d="M113.28,47.071c0.861-0.061,1.013,0.587,1.92,0.48
		c-0.142,1.867,1.243,3.797,0,5.28c-1.532,0.412-1.485-0.755-2.4-0.96C112.54,48.89,113.904,49.37,113.28,47.071z"/>
	<path fill-rule="evenodd" clip-rule="evenodd" fill="#FFFFFF" d="M107.52,47.551c0.64,0,1.28,0,1.92,0c0,1.6,0,3.2,0,4.8
		C106.217,53.456,106.759,48.908,107.52,47.551z"/>
	<path fill-rule="evenodd" clip-rule="evenodd" fill="#FFFFFF" d="M308.16,66.271c0.207-1.073,2.365-0.194,3.359-0.48
		C311.313,66.864,309.154,65.986,308.16,66.271z"/>
	<path fill-rule="evenodd" clip-rule="evenodd" fill="#FFFFFF" d="M289.44,83.551c7.2-1.08,13.894,1.224,21.119-0.48
		c-4.313,12.13,9.888,21.737,0.48,28.8C302.981,103.29,297.187,92.444,289.44,83.551z"/>
	<path fill-rule="evenodd" clip-rule="evenodd" d="M234.24,89.311c1.787-0.062,2.597,2.443,1.92,3.36
		c-0.98-0.459-1.899-0.981-2.88-1.44C232.931,89.921,234.233,90.265,234.24,89.311z"/>
	<path fill-rule="evenodd" clip-rule="evenodd" fill="#FFFFFF" d="M223.2,108.511c-0.049,1.221-1.789,1.134-2.4,0.48
		C221.132,107.486,222.08,108.365,223.2,108.511z"/>
	<path fill-rule="evenodd" clip-rule="evenodd" fill="#FFFFFF" d="M213.12,108.991c1.459-0.02,3.159-0.279,2.88,1.44
		c-1.356-0.396-1.243,0.677-2.4,0.48C213.228,110.484,213.084,109.827,213.12,108.991z"/>
	<path fill-rule="evenodd" clip-rule="evenodd" fill="#FFFFFF" d="M204.96,109.471c0.8,0,1.6,0,2.4,0
		c-0.066,0.894-0.316,1.604-0.96,1.92C205.134,111.537,205.162,110.389,204.96,109.471z"/>
	<path fill-rule="evenodd" clip-rule="evenodd" fill="#FFFFFF" d="M179.04,110.431C177.877,112.006,176.746,109.097,179.04,110.431
		L179.04,110.431z"/>
	<path fill-rule="evenodd" clip-rule="evenodd" fill="#FFFFFF" d="M148.8,110.431c1.51-0.23,1.876,0.684,2.88,0.96
		C151.287,113.21,148.51,112.129,148.8,110.431z"/>
	<path fill-rule="evenodd" clip-rule="evenodd" fill="#FFFFFF" d="M156.96,110.431c0.775-0.135,0.826,0.454,1.44,0.48
		C158.59,111.843,156.214,111.612,156.96,110.431z"/>
	<path fill-rule="evenodd" clip-rule="evenodd" fill="#FFFFFF" d="M170.4,110.431c1.003-0.203,1.271,0.329,1.92,0.48
		C172.473,111.758,169.631,111.768,170.4,110.431z"/>
	<path fill-rule="evenodd" clip-rule="evenodd" fill="#FFFFFF" d="M344.16,117.151c1.976,0.657,1.133,3.787,1.439,6.72
		c1.076,10.28,2.717,22.7,4.32,29.28c-2.818-0.678-3.222-4.827-3.36-7.2C346.059,137.35,344.468,126.626,344.16,117.151z"/>
	<path fill-rule="evenodd" clip-rule="evenodd" fill="#FFFFFF" d="M307.68,117.631c2.707,3.053,7.741,3.779,9.12,8.16
		C314.509,122.323,308.666,122.405,307.68,117.631z"/>
	<path fill-rule="evenodd" clip-rule="evenodd" fill="#FFFFFF" d="M276.48,120.511c1.226,0.054,0.952,1.607,0.96,2.88
		C275.625,123.802,275.741,121.243,276.48,120.511z"/>
	<path fill-rule="evenodd" clip-rule="evenodd" fill="#FFFFFF" d="M285.12,120.511c1.265-0.145,1.575,0.665,1.439,1.92
		c-0.479,0-0.96,0-1.439,0C285.12,121.791,285.12,121.151,285.12,120.511z"/>
	<path fill-rule="evenodd" clip-rule="evenodd" fill="#FFFFFF" d="M296.64,120.511c0.845,0.116,1.095,0.826,0.96,1.92
		c-0.894,0.066-1.604,0.316-1.92,0.96C294.561,122.85,296.061,120.937,296.64,120.511z"/>
	<path fill-rule="evenodd" clip-rule="evenodd" fill="#FFFFFF" d="M307.68,120.991c0.062,0.861-0.587,1.012-0.479,1.92
		c-1.047,0.087-1.527-0.393-1.44-1.44C306.188,121.098,306.844,120.955,307.68,120.991z"/>
	<path fill-rule="evenodd" clip-rule="evenodd" fill="#FFFFFF" d="M6.72,123.871c0.71,0.25,1.209,0.71,1.92,0.96
		c0.063,1.184,0.073,2.313-0.48,2.88c-0.64,0-1.28,0-1.92,0C5.424,126.839,5.501,124.152,6.72,123.871z"/>
	<path fill-rule="evenodd" clip-rule="evenodd" fill="#FFFFFF" d="M294.72,124.351C295.961,122.699,295.88,126.82,294.72,124.351
		L294.72,124.351z"/>
	<path fill-rule="evenodd" clip-rule="evenodd" fill="#FFFFFF" d="M0,124.351c1.763-0.271,2.187,3.788,0,3.36
		C0,126.591,0,125.471,0,124.351z"/>
	<path fill-rule="evenodd" clip-rule="evenodd" fill="#FFFFFF" d="M151.2,124.831c1.033,0.407,1.698,1.182,1.44,2.88
		c-0.64,0-1.28,0-1.92,0C150.372,126.243,151.548,126.299,151.2,124.831z"/>
	<path fill-rule="evenodd" clip-rule="evenodd" fill="#FFFFFF" d="M158.4,124.831c2.173,0.067,1.931,2.549,1.92,4.8
		C158.644,129.188,157.216,126.61,158.4,124.831z"/>
	<path fill-rule="evenodd" clip-rule="evenodd" fill="#FFFFFF" d="M165.6,124.831c2.014,0.082,2.781,1.696,1.92,3.36
		C165.775,128.176,165.411,126.78,165.6,124.831z"/>
	<path fill-rule="evenodd" clip-rule="evenodd" fill="#FFFFFF" d="M188.16,124.831c3.231-0.398,3.365,3.185,1.44,4.32
		C188.573,128.186,188.135,127.67,188.16,124.831z"/>
	<path fill-rule="evenodd" clip-rule="evenodd" fill="#FFFFFF" d="M194.88,124.831c2.391-0.54,2.989,2.42,1.92,3.84
		C195.161,128.39,194.53,127.101,194.88,124.831z"/>
	<path fill-rule="evenodd" clip-rule="evenodd" fill="#FFFFFF" d="M202.08,125.311c0.485-1.352,2.039,0.133,2.88,0
		c-0.005,1.275,0.182,2.741-0.479,3.36c-0.999-0.282-1.552-1.009-2.4-1.44c-0.35-1.31,0.954-0.966,0.96-1.92
		C202.72,125.311,202.4,125.311,202.08,125.311z"/>
	<path fill-rule="evenodd" clip-rule="evenodd" fill="#FFFFFF" d="M210.24,124.831c2.147-0.228,2.401,1.438,2.399,3.36
		c-1.479,0.359-0.585-1.655-2.399-0.96C210.24,126.431,210.24,125.631,210.24,124.831z"/>
	<path fill-rule="evenodd" clip-rule="evenodd" fill="#FFFFFF" d="M143.04,125.791c0.429-1.296,1.948,0.223,1.44,1.44
		C143.373,127.378,143.947,125.844,143.04,125.791z"/>
	<path fill-rule="evenodd" clip-rule="evenodd" fill="#FFFFFF" d="M172.32,125.311c3.009-0.148,2.237,2.631,1.44,4.32
		C171.501,128.918,172.282,127.814,172.32,125.311z"/>
	<path fill-rule="evenodd" clip-rule="evenodd" fill="#FFFFFF" d="M180.96,125.311c0.861-0.061,1.013,0.588,1.92,0.48
		c0.192,1.792-0.383,2.816-1.92,2.88C179.849,127.604,181.123,126.799,180.96,125.311z"/>
	<path fill-rule="evenodd" clip-rule="evenodd" fill="#FFFFFF" d="M218.88,125.311c1.375-0.094,2.62-0.06,2.4,1.44
		C220.354,127.685,218.342,127.253,218.88,125.311z"/>
	<path fill-rule="evenodd" clip-rule="evenodd" fill="#FFFFFF" d="M128.64,125.791c1.848-0.378,1.848,2.298,0,1.92
		C128.64,127.071,128.64,126.431,128.64,125.791z"/>
	<path fill-rule="evenodd" clip-rule="evenodd" fill="#FFFFFF" d="M135.84,125.791c2.237,0.009,2.237,2.391,0,2.4
		C135.84,127.391,135.84,126.591,135.84,125.791z"/>
	<path fill-rule="evenodd" clip-rule="evenodd" fill="#FFFFFF" d="M124.32,126.271c1.266-0.146,1.238,1.002,1.44,1.92
		C124.158,128.673,124.186,127.525,124.32,126.271z"/>
	<path fill-rule="evenodd" clip-rule="evenodd" fill="#FFFFFF" d="M394.08,126.751c2.436,0.181,1.878,2.907,1.439,4.8
		c-0.427-0.373-1.083-0.516-1.92-0.48C393.698,129.569,393.276,127.547,394.08,126.751z"/>
	<path fill-rule="evenodd" clip-rule="evenodd" fill="#FFFFFF" d="M399.36,126.751c0.64,0,1.279,0,1.92,0
		c0.977,1.748,0.082,2.867-0.48,4.32C398.312,131.025,398.945,128.598,399.36,126.751z"/>
	<path fill-rule="evenodd" clip-rule="evenodd" fill="#FFFFFF" d="M308.64,127.231c1.539,0.789,1.225,1.605,0.96,3.36
		c-1.478,0.336-0.922,0.336-2.399,0C306.591,128.382,308.073,128.264,308.64,127.231z"/>
	<path fill-rule="evenodd" clip-rule="evenodd" fill="#FFFFFF" d="M388.8,127.231c2.885-0.451,2.996,3.823,0.48,3.84
		C387.957,129.961,388.983,129.481,388.8,127.231z"/>
	<path fill-rule="evenodd" clip-rule="evenodd" fill="#FFFFFF" d="M296.64,127.711c2.007,0.074,2.623,1.538,2.4,3.84
		C296.247,132.264,296.549,129.882,296.64,127.711z"/>
	<path fill-rule="evenodd" clip-rule="evenodd" fill="#FFFFFF" d="M286.56,128.191c3.318-0.997,3.865,3.922,0.96,3.84
		C286.973,130.978,286.281,130.07,286.56,128.191z"/>
	<path fill-rule="evenodd" clip-rule="evenodd" fill="#FFFFFF" d="M0,132.031c0.631,0.489,1.77,0.471,2.4,0.96
		c-0.396,1.356,0.677,1.244,0.48,2.4c-0.614,0.656-2.266,0.656-2.88,0C0,134.271,0,133.151,0,132.031z"/>
	<path fill-rule="evenodd" clip-rule="evenodd" fill="#FFFFFF" d="M8.16,132.511c1.41,0.878,2.671,2.646,1.92,4.32
		C6.609,137.209,7.215,134.321,8.16,132.511z"/>
	<path fill-rule="evenodd" clip-rule="evenodd" fill="#FFFFFF" d="M318.24,138.271c1.215,1.985,1.022,5.377,1.439,8.16
		C317.534,145.923,318.128,140.496,318.24,138.271z"/>
	<path fill-rule="evenodd" clip-rule="evenodd" fill="#FFFFFF" d="M351.36,148.351c1.532-0.677,1.213,2.872,0.479,2.88
		C349.675,151.276,352.05,149.782,351.36,148.351z"/>
	<path fill-rule="evenodd" clip-rule="evenodd" fill="#FFFFFF" d="M297.6,149.791c0.32,0,0.641,0,0.96,0c0,0.32,0,0.64,0,0.96
		c-0.319,0-0.64,0-0.96,0C297.6,150.431,297.6,150.111,297.6,149.791z"/>
	<path fill-rule="evenodd" clip-rule="evenodd" fill="#FFFFFF" d="M331.2,149.791c2.78,1.7,4.415,4.544,5.28,8.16
		c-1.203,0.877-3.162,0.999-3.841,2.4C330.913,157.508,332.04,152.387,331.2,149.791z"/>
	<path fill-rule="evenodd" clip-rule="evenodd" fill="#FFFFFF" d="M50.88,151.231c1.453,0.842,1.927,5.561,0,5.76
		c-1.499,0.239-0.227-0.644-0.48-0.96c-1.042-1.301-3.222-1.283-4.32-2.879C46.688,151.519,51.689,154.281,50.88,151.231z"/>
	<path fill-rule="evenodd" clip-rule="evenodd" fill="#FFFFFF" d="M317.76,151.231c2.375-0.866,2.031,4.262-0.479,2.88
		C317.833,153.543,317.823,152.415,317.76,151.231z"/>
	<path fill-rule="evenodd" clip-rule="evenodd" fill="#FFFFFF" d="M84.48,152.191c-0.209,0.591-0.614,0.986-1.44,0.96
		C83.25,152.561,83.654,152.166,84.48,152.191z"/>
	<path fill-rule="evenodd" clip-rule="evenodd" fill="#FFFFFF" d="M83.52,153.631c0.849,0.431,1.401,1.158,2.4,1.439
		c0.206,1.326-1.79,0.451-1.92,1.44C83.08,156.105,82.701,154.406,83.52,153.631z"/>
	<path fill-rule="evenodd" clip-rule="evenodd" fill="#FFFFFF" d="M200.16,153.631c-0.583,1.978-1.635,3.484-1.92,5.76
		c-2.697-0.022-4.933-0.507-7.2-0.96c-2.26,0.235-1.161-0.865,0.48-0.48c2.659-0.221,4.334-1.425,7.2-1.439
		c0.458-2.219-3.122-0.398-2.88-2.4C197.697,154.368,198.183,153.254,200.16,153.631z"/>
	<path fill-rule="evenodd" clip-rule="evenodd" fill="#FFFFFF" d="M300,153.631c2.253,0.34,0.843,4.196,4.32,4.319
		c-1.585,5.685,8.961,4.856,11.04,1.44c-0.145-0.712-2.02-2.065-2.4-0.96c-1.079-1.994,5.392-2.779,6.72-2.4
		c-1.183,3.396-0.938,6.633,0,10.08c-4.308,1.933-9.156,3.323-13.439,5.28C303.82,165.81,302.63,159.001,300,153.631z"/>
	<path fill-rule="evenodd" clip-rule="evenodd" fill="#FFFFFF" d="M86.4,158.912c-2.186,2.035,2.91,2.84,0.48,3.359
		c0.407,0.714,1.545,0.694,2.4,0.96c-0.51,1.09-3.017,0.183-4.32,0.48c-0.305,2.225,2.625,1.215,4.32,1.439
		c0.812,0.535-2.624,0.864-3.84,0.96c1.717,2.597,8.216,1.903,11.52,1.44c-0.004,2.518,3.218,2.883,4.8,2.399
		c-2.109,2.462-0.823,5.659-2.88,7.681c0.373,3.473,6.524,3.708,7.2,5.28c-0.434,1.371-3.975-0.168-5.76-0.961
		c-9.79-4.347-18.414-12.234-22.56-22.56C81.116,159.169,83.298,158.598,86.4,158.912z"/>
	<path fill-rule="evenodd" clip-rule="evenodd" fill="#FFFFFF" d="M99.84,158.912c0.115-0.694,3.951-1.116,3.36,0.479
		C101.535,159.776,101.355,158.676,99.84,158.912z"/>
	<path fill-rule="evenodd" clip-rule="evenodd" fill="#FFFFFF" d="M150.24,158.431c-1.489,1.552-5.212,0.868-7.68,1.44
		C144.147,158.418,147.855,159.086,150.24,158.431z"/>
	<path fill-rule="evenodd" clip-rule="evenodd" fill="#FFFFFF" d="M196.8,161.792c-1.99-0.13-1.87,0.63-3.36,0
		C194.011,161.464,196.951,159.81,196.8,161.792z"/>
	<path fill-rule="evenodd" clip-rule="evenodd" fill="#FFFFFF" d="M98.4,161.792c0.827-1.693,0.786,1.385,2.4,0.479
		c0.156,1.09-7.384,2.427-3.84,0.96C96.89,163.26,99.877,162.667,98.4,161.792z"/>
	<path fill-rule="evenodd" clip-rule="evenodd" fill="#FFFFFF" d="M388.32,161.792c-5.279,2.166-11.989-0.063-17.761,1.439
		c-0.562,0.078-0.404,0.875-0.479,1.44c-1.947-0.45-4.864-0.851-6.72,0c-0.418-1.857,1.172-1.708,1.439-2.88
		C374.206,163.16,378.898,160.193,388.32,161.792z"/>
	<path fill-rule="evenodd" clip-rule="evenodd" fill="#FFFFFF" d="M153.12,164.671c-3.286-0.246-5.229,0.852-8.64,0.479
		c-0.553-2.313,2.232-1.287,2.4-2.88C149.031,163.711,151.959,161.883,153.12,164.671z"/>
	<path fill-rule="evenodd" clip-rule="evenodd" fill="#FFFFFF" d="M126.72,163.711c0.455,1.734-1.891,0.669-2.88,0.96
		c0.187,1.413,2.262,0.938,2.88,1.92c2.08,0,4.16,0,6.24,0c1.12,0,2.24,0,3.36,0c-0.013,0.467-0.587,0.372-0.96,0.479
		c-0.48,0-0.96,0-1.44,0c-4,0-8,0-12,0c9.258,5.303,27.995,1.126,39.84,3.841c-8.137,1.065-20.452,0.234-27.84,0.479
		c0.553,1.858,3.293,1.672,4.8,1.92c3.071,0.506,7.109,0.443,12.48,0.48c4.042,3.679,9.702,1.574,15.36,1.439
		c7.288-0.173,15.024,2.783,22.08,0.48c-2.546-2.894-9.104-1.776-13.44-2.88c3.58-1.54,11.444,1.204,12.48-2.881
		c1.43,1.276,5.415-0.191,6.24,0.48c-2.116,6.044-3.018,13.303-4.32,20.16c-9.44-0.317-21.674-0.943-30.72-0.96
		c-16.021-0.029-28.003-1.801-41.76-2.88c-0.456-0.985-0.596-2.285-1.92-2.4c1.922-0.081,2.5-1.231,4.8-1.92
		c-0.44-1.8-1.561-2.92-3.36-3.36c1.24-1.159,3.635-1.165,3.84-3.359c0.225-2.305-2.318-1.843-2.88-3.36
		c-0.359-1.479,1.655-0.585,0.96-2.4c-0.459-2.42-3.817-1.942-4.8-3.84c3.808,0.288,6.941-0.099,7.2-3.359
		C123.004,162.947,125.218,162.973,126.72,163.711z"/>
	<path fill-rule="evenodd" clip-rule="evenodd" fill="#FFFFFF" d="M196.32,163.711c0.011,1.131-0.827,1.413-0.48,2.88
		c-2.308,2.08-10.063,1.593-12-0.96C189.16,166.152,192.634,164.825,196.32,163.711z"/>
	<path fill-rule="evenodd" clip-rule="evenodd" fill="#FFFFFF" d="M404.64,164.191c0,0.96,0,1.92,0,2.88
		c-2.533-1.146-5.028-2.331-8.64-2.399C397.929,163.56,401.913,164.504,404.64,164.191z"/>
	<path fill-rule="evenodd" clip-rule="evenodd" fill="#FFFFFF" d="M25.92,165.151c-1.287,2.783,1.44,2.574,3.84,2.88
		c-1.51,1.323-3.773-0.685-6.24,0c0.624-0.638,0.633-1.786-0.48-1.92C23.632,165.423,24.69,165.202,25.92,165.151z"/>
	<path fill-rule="evenodd" clip-rule="evenodd" fill="#FFFFFF" d="M95.04,165.631c-0.081-1.041,1.703-0.218,2.4-0.48
		C97.521,166.192,95.737,165.369,95.04,165.631z"/>
	<path fill-rule="evenodd" clip-rule="evenodd" fill="#FFFFFF" d="M404.64,168.031c0,0.48,0,0.96,0,1.44
		c-9.694,0.076-18.813-2.379-27.84-1.44c0.055-0.585,0.144-1.136,0.96-0.96c-0.804-1.227-4.921,0.8-5.76-1.439
		C382.003,165.037,394.221,169.76,404.64,168.031z"/>
	<path fill-rule="evenodd" clip-rule="evenodd" fill="#FFFFFF" d="M153.12,174.271c1.703-2.457,8.033-0.286,9.6-2.88
		c3.269,0.879,5.384,0.807,8.64,0.96c0.96,0,1.92,0,2.88,0c-4.18,1.663-10.173-1.1-12.96,1.44
		C158.522,173.914,155.161,173.432,153.12,174.271z"/>
	<path fill-rule="evenodd" clip-rule="evenodd" fill="#FFFFFF" d="M316.32,219.872c-2.127,1.859-5.178,0.803-7.681,0.96
		c-4.397,0.276-8.086,1.428-12,1.439c2.453-2.347,6.822-2.777,9.12-5.28C308.663,218.568,314.247,217.464,316.32,219.872z"/>
	<path fill-rule="evenodd" clip-rule="evenodd" fill="#FFFFFF" d="M287.52,227.071c-0.357,1.083-2.691,0.188-3.84,0.48
		C284.08,226.453,286.629,226.237,287.52,227.071z"/>
	<path fill-rule="evenodd" clip-rule="evenodd" fill="#FFFFFF" d="M246.24,269.792c-0.21,0.59-0.614,0.985-1.44,0.96
		C244.576,269.727,245.485,269.837,246.24,269.792z"/>
	<path fill-rule="evenodd" clip-rule="evenodd" fill="#FFFFFF" d="M243.84,270.751c0.645,0.315,0.895,1.025,0.96,1.92
		c-1.553-0.594-0.366,1.553-1.92,0.96C241.571,272.33,244.121,272.436,243.84,270.751z"/>
	<path fill-rule="evenodd" clip-rule="evenodd" fill="#FFFFFF" d="M255.84,275.071c-0.795,2.271-0.471,2.703-1.92,4.32
		c-0.427-0.213-0.858-0.422-0.96-0.96c0-0.32,0-0.64,0-0.96C255.468,279.176,253.489,274.817,255.84,275.071z"/>
	<path fill-rule="evenodd" clip-rule="evenodd" fill="#FFFFFF" d="M252,278.431c-0.115,0.845-0.826,1.094-1.92,0.96
		C250.396,278.747,251.106,278.498,252,278.431z"/>
	<path fill-rule="evenodd" clip-rule="evenodd" d="M0,117.631c2.974,0.845,6.865-0.805,10.08,0.48c1.74-0.34,0.662-3.499,0.96-5.28
		c-0.393-1.208-2.531-0.669-3.36-1.44c0.043-4.917,4.83-5.09,7.68-7.2c3.485,1.155,5.712,3.568,8.16,5.76
		c-1.106,2.094-2.632,3.768-1.92,7.68c4.167-0.267,7.86,0.129,12.96,0c1.057-1.184,1.066-3.414,1.92-4.8
		c2.202,0.599,3.332-0.543,5.28,0.48c1.166,1.463,0.704,2.057,0.48,4.32c4.487-0.792,10.392-0.168,14.88-0.96
		c2.611,6.898,1.879,16.897,1.44,25.44c-0.108,2.101-0.752,4.687,0.48,6.24c-0.153,1.127-1.486,1.074-1.92,1.92
		c1.113,0.153,1.843-0.077,2.4-0.48c2.671-7.912,0.52-16.844,0.96-24.48c0.094-1.637,0.646-3.213,0.48-4.8
		c-0.337-3.231-3.09-9.184-4.32-12.48c-3.062-8.208-7.145-17.016-12.96-22.56c5.527-4.207,11.98-1.803,17.76,0.48
		c1.356,0.536,3.154,1.011,3.84,1.44c2.683,1.677,6.238,6.622,7.2,9.12c1.867,4.847,0.768,10.719,0.48,16.8
		c-1.356-0.396-1.244,0.677-2.4,0.48c5.342,7.962,0.361,26.113,4.32,37.44c2.216-1.382,3.891-0.324,7.2-0.48
		c-1.498-1.062-3.224-1.896-5.28-2.4c0.061-2.46-1.789-3.011-2.4-4.8c0.665-9.25,0.147-16.208-0.48-25.44
		c6.97-1.185,13.672-0.144,19.2-0.96c0.702,1.698,2.306,2.494,3.36,3.84c0.238,2.638-2.739,2.062-1.92,5.28
		c0.597,1.886,4.416,0.805,5.28,0c0.17-26.496-0.947-48.553-0.48-73.92c0.02-1.058,0.802-1.37,0.96-2.4
		c0.355-2.312-1.45-5.125,0-7.68c-0.414-1.666-1.497-2.663-2.4-3.84c1.992-4.302,4.076-9.457,6.24-14.4
		c2.073-4.736,3.096-10.893,6.72-12.96c2.85,1.135,13.095,23.765,13.44,26.88c-0.392,2.008-2.57,2.23-3.36,3.84
		c1.779,7.96,2.631,20.898,1.44,30.72c-0.331,1.291-0.898,7.326-0.48,9.6c0.822,4.464,0.614,25.946,0,25.92
		c0.147,3.185,0.174,7.67,0,11.52c5.243,1.54,16.287,0.507,22.56,0.48c0-2.08,0-4.16,0-6.24c-0.866-2.813-7.445,0.085-8.16-2.88
		c1.562-1.987,4.307-2.75,6.72-3.84c7.31-3.302,14.594-7.143,26.4-5.76c0.244-5.036,4.371-6.189,6.72-9.12
		c3.582,0.739,5.02,3.62,7.68,5.28c0,1.44,0,2.88,0,4.32c5.818,0.059,7.936,0.277,12.48,0.48c0.36-1.64-1.95-0.61-1.44-2.4
		c0.079-2.641,3.763-1.678,2.88-5.28c1.702-1.499,3.418-2.982,5.76-3.84c1.062-1.019,0.081-4.079,2.4-3.84
		c0.973,0.924,1.116,1.932,0.48,3.36c2.827,0.213,3.959,2.121,6.72,2.4c1.214,2.786,2.657,5.342,4.32,7.68
		c3.72,0.28,7.049,0.951,10.56,1.44c1.377-0.543,0.52-3.32,2.88-2.88c-0.552-1.345-0.552-2.495,0-3.84
		c2.137-0.931,6.113-2.272,8.16-0.48c0.022,3.227,2.543,4.691,1.44,7.68c5.629,1.317,10.39,3.678,15.359,4.8
		c0.897,1.343,1.349,3.132,1.92,4.8c11.888,2.83,16.696-2.741,22.08-7.68c6.97,0.382,12.819-0.739,16.32,2.88
		c1.485,1.536,1.221,4.332,3.359,5.76c2.116,0.124,3.713,0.767,6.24,0.48c-6.841-10.759-14.804-20.396-22.08-30.72
		c-2.422,0.342-3.504-0.656-5.279-0.96c-1.586-4.098-0.889-7.12,2.399-9.12c6.419,2.267,12.002-0.783,19.2-0.48
		c-12.581-8.537-23.877-20.578-21.12-39.84c2.258-15.772,16.713-31.556,34.561-32.16c13.112-0.444,22.301,3.877,28.8,11.04
		c10.537,5.656,14.617,28.551,8.16,42.72c-1.058,2.32-1.829,4.019-3.841,4.8c-1.148,5.73-6.646,7.114-9.6,11.04
		c-1.515-0.235-1.695,0.865-3.36,0.48c0.629,9.308,6.027,11.6,6.721,20.16c-0.51,2.371-2.444,3.316-1.92,6.72
		c3.484,3.555,4.371,9.708,4.8,16.32c4.082,0.08,6.002,0.358,9.12,0c2.196,3.083,4.178,6.382,5.76,10.08
		c1.441,0.639,3.672,0.488,5.76,0.48c0.993-3.232-1.495-2.984-1.92-4.8c2.82-3.42,7.913-4.567,11.04-7.68c3.84,0,7.68,0,11.521,0
		c-5.363,11.757-14.26,19.981-20.641,30.72c-2.961,1.199-4.89,3.43-7.2,5.28c-1.356,0.396-1.243-0.676-2.399-0.48
		c-0.408,1.317-1.915,3.125-0.96,4.32c4.478-2.097,7.978-5.995,11.52-9.6c10.615-10.802,19.428-25.045,25.44-40.8
		c4.224-0.311,2.475,3.413,1.92,5.76c-0.896,3.794-1.378,6.133-2.88,10.08c-0.835,2.191-2.507,4.161-3.36,6.24
		c-1.496,3.644-2.145,7.569-3.84,11.04c-1.678,3.436-5.069,8.893-6.24,13.44c-3.837,3.843-6.853,8.508-9.6,13.44
		c0.617,0.153,2.385,0.398,4.319,0.479c0.76-0.694-0.049-1.072,0-2.88c0.96,0,1.921,0,2.881,0c0.708-2.309-2.759-0.441-2.4-2.4
		c2.653,1.752-0.522-3.068,3.36-1.92c0.71-0.596-1.167-1.396,0.479-2.4c2.811,0.55,6.178,0.542,9.601,0.48
		c-2.427-1.094-6.795-0.245-8.16-2.4c0.115-0.844,0.825-1.094,1.92-0.96c3.062-13.898,10.432-23.488,13.439-37.44
		c3.2,0,6.4,0,9.601,0c1.441,1.438,1.631,4.129,3.359,5.28c0,1.44,0,33.28,0,47.52c-2.727,0.313-6.711-0.631-8.64,0.48
		c3.611,0.068,6.106,1.253,8.64,2.399c0,0.32,0,0.641,0,0.96c-10.419,1.729-22.637-2.994-32.64-2.399
		c0.839,2.239,4.956,0.213,5.76,1.439c-0.816-0.176-0.905,0.375-0.96,0.96c9.026-0.938,18.146,1.517,27.84,1.44
		c0,0.479,0,0.96,0,1.44c-7.739-0.071-15.404,0.058-24.96,0c-4.32-0.026-8.071,0.248-12-0.961c-1.104-0.339-3.046-0.582-3.359-1.92
		c1.76,0,3.52,0,5.279,0c-0.76-1-3.357-0.161-4.319-0.96c-0.381-0.552,0.773-1.118,0.479-1.439c-0.027-0.03-4.265-0.818-2.88-0.96
		c-2.301,0.234-5.883,7.412-7.68,8.64c13.127,15.833,27.208,30.712,40.319,46.561c-0.349,2.196-3.277,3.881-5.76,2.399
		c1.605,1.755,5.027,1.692,4.8,5.28c-1.067,1.011-2.314-0.506-4.319,0c2.795,1.365,5.437,2.883,5.279,7.2
		c-3.465,0.055-5.718,1.321-8.64,1.92c3.573,1.867,7.351,3.529,9.12,7.2c-0.289,4.99-5.518,5.042-10.08,5.76
		c1.711,3.569,7.051,3.509,7.2,8.64c-3.267,1.149-5.639,0.234-8.64,1.44c2.607,3.151,8.505,3.015,8.159,9.12
		c-2.029,0.53-3.937,1.183-5.76,1.92c2.423,2.973,6.328,4.295,6.72,8.16c0.592,5.838-6.484,9.656-11.52,11.52
		c1.05-4.87,5.49-6.35,7.2-10.56c-0.943-4.817-6.92-4.601-9.12-8.16c1.035-2.805,1.74-5.939,5.76-5.761
		c-1.339-2.021-4.269-2.451-5.28-4.8c0.551-3.77,3.638-5.002,7.2-5.76c-1.511-2.169-4.902-2.458-6.24-4.8
		c0.968-3.832,4.032-5.568,8.16-6.24c-2.421-2.379-7.061-2.539-9.6-4.8c0.765-3.076,1.611-6.069,3.84-7.68
		c-0.874-1.366-2.637-1.844-3.84-2.881c2.058-1.941,2.043-5.956,6.24-5.76c-1.532-1.853-3.626-0.188-5.761-1.439
		c-3.008-5.763-7.378-10.544-11.04-15.841c-6.239-9.024-11.212-18.889-17.76-27.84c-7.412,6.941-13.88,14.982-21.6,21.601
		c-1.143,0.979-3.195,0.934-3.36,2.88c-5.858,2.941-9.994,7.605-15.36,11.04c1.818,0.524,6.357-0.354,9.601,0
		c1.614-0.775-1.509-1.521,0-2.4c5.98-2.499,16.185-2.782,23.04-0.479c-0.588,3.751-5.511,2.736-7.68,2.88
		c-1.305,1.444,1.05,2.142,0.479,4.319c-2.403,1.277-5.79,1.57-8.16,2.881c0.835,0.925,3.334,0.187,3.36,1.92
		c-2.82,3.723-9.996,3.11-15.84,3.84c-1.729,0.216-5.558,0.81-8.641,0.479c5.396,1.812,13.563-0.652,15.84,3.36
		c-3.208,6.392-17.123,2.077-20.159,8.64c-1.861,0.54-3.34,1.461-5.28,1.92c8.475-0.255,20.478-0.94,24.479,5.761
		c-0.306,3.054-5.135,1.584-6.239,3.84c-6.776,0.84-10.201,2.085-17.28,2.399c1.771,1.429,4.08,2.32,4.8,4.801
		c-1.319,1.4-4.629,0.811-5.28,2.88c-7.333,0.826-13.372,2.947-21.119,3.359c6.616,0.86,18.29,0.505,19.199,8.641
		c-6.192,2.847-14.152,3.979-20.64,5.279c3.569,0.777,6.926,1.638,9.12,4.801c-0.091,1.35-1.566,1.313-1.92,2.399
		c1.556,1.206,4.051,0.143,5.28-0.479c-0.307,2.494,1.059,3.847,0,5.76c-3.599,2.802-10.651,2.149-11.521,7.68
		c-1.28,0-2.56,0-3.84,0c-1.346,1.223,2.025,1.787,0.96,4.32c-1.7,0.22-2.772,1.067-4.8,0.96c-1.146,2.147,3.432,2.183,2.399,5.76
		c-2.105,2.47-9.585,1.579-12.479,0.48c-0.538-1.512-0.044-1.087,0-2.88c-1.521,0.666-4.239,0.666-5.76,0
		c0.549-2.811-1.919-3.717-3.36-5.761c0.417-1.396,0.719-0.539,1.92-0.479c-0.621-1.706-1.085-1.745-0.48-3.84
		c-3.563-1.717-10.596,0.036-12-3.84c3.18-3.861,11.021-3.06,16.801-4.32c-4.917-1.392-13.308-0.647-19.681-1.92
		c-3.549-0.709-6.527-2.085-8.159-4.32c2.633-3.286,9.633-2.207,13.439-4.32c-6.848-1.312-17.103,0.783-20.16-4.319
		c0.302-1.618,1.631-2.21,3.36-2.4c-0.34-1.74-3.498-0.661-5.28-0.96c-0.645,0.316-0.894,1.026-0.96,1.92
		c-10.819,3.777-24.114,3.629-36.48,3.36c-4.652-0.101-10.706-0.104-13.92-3.36c2.151-2.998,6.316-2.496,10.08-2.88
		c11.381-1.161,25.231-2.596,36.959,0c-2.034-0.846-4.478-1.281-6.72-1.92c-0.909-1.264-1.014-1.616-0.479-2.88
		c-17.947,2.941-39.559,2.054-56.16,0.479c1.68,1.68,5.176,1.544,6.72,3.36c0.347,1.467-0.491,1.749-0.48,2.88
		c-9.45,1.105-19.333,1.426-29.28-0.479c-1.952-0.374-4.897-0.35-5.76-2.4c2.24,0,4.48,0,6.72,0c-4.903-1.23-9.875-0.28-15.36-1.439
		c0.825-1.734,4.425-0.694,5.76-1.921c-1.579-2.101-7.509,0.149-8.16-2.88c2.851-0.349,5.179-1.222,8.64-0.96
		c-4.099-1.464-12.276-1.381-17.28-3.359c1.063-2.938,5.462-2.538,8.64-3.36c-2.926-2.033-9.02-0.9-11.04-3.84
		c0.505-1.255,1.951-1.57,3.84-1.44c-1.377-1.183-4.239-0.881-4.8-2.88c-4.359,2.441-10.961,2.796-19.68,2.4
		c-6.9-0.313-13.689-0.585-15.84-4.8c1.895-3.226,7.316-2.924,12-3.36c-3.998-1.922-10.548-1.292-11.52-6.24
		c2.831-2.142,6.57-0.342,9.12-1.439c-0.254-0.387-0.5-0.779-0.48-1.44c-0.61,0.536-5.405,0.159-5.76-2.4
		c1.74-3.368,5.982-2.556,10.56-1.92c-0.865-1.694-4.136-0.983-5.28-2.399c-0.687-1.34,2.007-1.594-0.48-2.88
		c0.148-0.651,1.202-0.398,1.92-0.48c-1.974-2.666-7.367-1.913-9.12-4.8c1.993-2.343,6.241,1.023,10.08,0
		c-1.086-1.313-2.88-1.92-4.32-2.88c0.844-2.144,3.552-1.165,5.76-0.96c-7.353-7.367-13.455-15.984-16.32-27.84
		c-0.141-0.979-1.299-0.941-1.44-1.92c-2.508-0.108-4.792,0.008-6.72,0.479c-1.178-1.713-1.313-5.899-0.48-8.16
		c2.548-0.492,4.797-1.283,6.72-2.399c-0.131-2.749-4.859-0.901-7.2-1.44c-0.635-2.908-1.157-7.055,0-9.12
		c2.51-0.21,4.206-1.234,7.2-0.96c0-1.28,0-2.56,0-3.84c-1.12,0-2.24,0-3.36,0c-1.315,1.144,1.895,2.116,0.48,3.36
		c-1.919,0.159-2.665-0.856-4.8-0.48c-1.909,1.291-2.726,3.675-6.72,2.88c1.097,1.303,4.662,0.138,4.32,2.88
		c-0.023,2.058-2.88,1.28-4.8,1.44c0.072,0.888,1.625,0.295,1.92,0.96c-1.047,1.673-2.822,2.618-5.76,2.4
		c-0.596,2.326-3.329,1.627-6.72,2.88c-1.493,0.551-2.566,1.732-3.36,1.92c-3.831,0.901-8.237-0.041-11.52-1.92
		c0.108-0.691,1.433-0.168,1.44-0.96c-5.346-1.253-10.089-1.568-14.88-3.36c-1.617-0.604-4.1-1.15-4.32-2.88
		c2.243-1.256,6.678-1.305,9.12-0.96c-0.087-1.513-2.423-0.777-2.4-2.4c0.409,2.085-4.874,1.564-7.68,1.92c0-1.6,0-3.2,0-4.8
		c3.775-0.351,4.696,1.452,9.6,0c-1.36-1.782-7.475-1.024-9.6-0.479c0-8.161,0-16.32,0-24.48c0.614,0.656,2.266,0.656,2.88,0
		c0.197-1.156-0.876-1.043-0.48-2.4c-0.63-0.489-1.769-0.471-2.4-0.96c0-1.44,0-2.88,0-4.32c2.187,0.428,1.763-3.63,0-3.36
		C0,122.111,0,119.871,0,117.631z M345.6,15.391c-0.914-1.021-1.89-2.779-2.399-3.36c-0.214-0.244-1.209,0.231-1.44,0
		c-0.707-0.708-0.725-2.151-1.439-2.88c-1.981-2.02-7.966-4.751-10.08-5.76c-2.405-1.147-5.809-2.114-7.681-2.4
		c-5.168-0.789-10.674-0.448-14.88,0.48c-23.424,5.17-36.179,35.143-22.56,55.2c1.839,2.708,4.352,6.205,6.24,8.16
		c2.065,2.139,7.709,6.365,10.56,6.72c1.171,0.146,2.069-0.862,3.36-0.96c2.028-0.154,4.143,1.079,7.2,0.48
		c0.147-1.749-0.077-3.124-0.48-4.32c-1.764-0.156-4.249,0.41-5.28-0.48c0.566-5.046-3.789-5.17-4.8-8.64
		c2.543-3.248,1.509-7.759,3.36-11.04c-2.25-3.19-6.795-4.085-7.2-9.12c4.429-0.322,5.404,2.753,8.64,2.4
		c4.865-0.53,7.908-10.587,14.88-9.12c5.07,2.298,2.89,10.202,3.36,17.76c3.354,2.407,8.149,3.371,9.6,7.68
		c-0.792,0.008-0.269,1.332-0.96,1.44c-3.628,0.828-5.773-3.768-10.08-3.84c-2.087,9.327,5.952,12.144,11.04,15.84
		C353.644,60.122,359.064,30.409,345.6,15.391z M102.72,52.351c3.514,1,2.416-3.686,1.92-5.28c-0.48,0-0.96,0-1.44,0
		C102.625,48.417,102.672,50.383,102.72,52.351z M112.8,51.871c0.916,0.205,0.869,1.372,2.4,0.96c1.243-1.483-0.142-3.413,0-5.28
		c-0.908,0.107-1.059-0.541-1.92-0.48C113.904,49.37,112.54,48.89,112.8,51.871z M109.44,52.351c0-1.6,0-3.2,0-4.8
		c-0.64,0-1.28,0-1.92,0C106.759,48.908,106.217,53.456,109.44,52.351z M311.04,111.871c9.407-7.062-4.794-16.67-0.48-28.8
		c-7.226,1.704-13.919-0.6-21.119,0.48C297.187,92.444,302.981,103.29,311.04,111.871z M220.8,108.991
		c0.611,0.654,2.352,0.741,2.4-0.48C222.08,108.365,221.132,107.486,220.8,108.991z M213.6,110.911
		c1.157,0.197,1.044-0.876,2.4-0.48c0.279-1.719-1.421-1.459-2.88-1.44C213.084,109.827,213.228,110.484,213.6,110.911z
		 M206.4,111.391c0.644-0.316,0.894-1.026,0.96-1.92c-0.801,0-1.601,0-2.4,0C205.162,110.389,205.134,111.537,206.4,111.391z
		 M160.8,110.911c0.851,0.429,0.612,1.948,2.4,1.44c0-0.8,0-1.6,0-2.4C162.008,109.879,161.208,110.199,160.8,110.911z
		 M179.04,110.431C176.746,109.097,177.877,112.006,179.04,110.431L179.04,110.431z M151.68,111.391
		c-1.004-0.276-1.37-1.19-2.88-0.96C148.51,112.129,151.287,113.21,151.68,111.391z M158.4,110.911
		c-0.614-0.026-0.665-0.615-1.44-0.48C156.214,111.612,158.59,111.843,158.4,110.911z M172.32,110.911
		c-0.649-0.151-0.917-0.683-1.92-0.48C169.631,111.768,172.473,111.758,172.32,110.911z M346.56,145.951
		c0.139,2.374,0.542,6.522,3.36,7.2c-1.604-6.581-3.244-19-4.32-29.28c-0.307-2.933,0.536-6.063-1.439-6.72
		C344.468,126.626,346.059,137.35,346.56,145.951z M316.8,125.791c-1.379-4.381-6.413-5.106-9.12-8.16
		C308.666,122.405,314.509,122.323,316.8,125.791z M277.44,123.391c-0.008-1.272,0.266-2.826-0.96-2.88
		C275.741,121.243,275.625,123.802,277.44,123.391z M285.12,122.431c0.479,0,0.96,0,1.439,0c0.136-1.255-0.175-2.064-1.439-1.92
		C285.12,121.151,285.12,121.791,285.12,122.431z M295.68,123.391c0.316-0.644,1.026-0.894,1.92-0.96
		c0.135-1.094-0.115-1.804-0.96-1.92C296.061,120.937,294.561,122.85,295.68,123.391z M305.76,121.471
		c-0.087,1.047,0.394,1.527,1.44,1.44c-0.107-0.908,0.541-1.059,0.479-1.92C306.844,120.955,306.188,121.098,305.76,121.471z
		 M199.68,151.711c1.207,0.644,2.29-1.326,2.88-1.92c4.475-4.504,8.133-8.68,12.959-12.48c5.075-3.995,9.271-6.307,15.841-9.12
		c3.921-1.679,8.367-4.134,12-4.32c2.656-0.135,7.565,1.57,11.52,1.92c5.292,0.468,9.368,0.876,12.48,3.36
		c1.112,0.153,1.843-0.078,2.399-0.48c0.182,2.219,2.906,1.894,4.8,2.4c0,0.48,0,0.96,0,1.44c7.444,1.676,11.267,6.974,17.28,10.08
		c1.15,1.841,2.876,5.292,5.28,4.32c-3.585-5.535-10.217-8.023-14.4-12.96c-1.778,0.463-3.101-1.797-3.359-1.92
		c-3.496-1.651-8.85-2.063-9.12-5.28c-1.554-0.593-0.367,1.553-1.92,0.96c-10.692-4.018-27.597-7.223-36.48-1.44
		c-1.014-0.426-1.419-1.461-2.88-1.44c-0.659,1.094,1.237,1.805,0,1.92c-10.837,4.204-18.157,11.923-26.4,18.72
		c-0.422,1.542,1.583,0.658,1.44,1.92C202.558,148.829,200.716,149.867,199.68,151.711z M6.24,127.711c0.64,0,1.28,0,1.92,0
		c0.553-0.567,0.543-1.696,0.48-2.88c-0.71-0.25-1.21-0.71-1.92-0.96C5.501,124.152,5.424,126.839,6.24,127.711z M294.72,124.351
		C295.88,126.82,295.961,122.699,294.72,124.351L294.72,124.351z M150.72,127.711c0.64,0,1.28,0,1.92,0
		c0.258-1.698-0.407-2.473-1.44-2.88C151.548,126.299,150.372,126.243,150.72,127.711z M160.32,129.631
		c0.011-2.251,0.253-4.733-1.92-4.8C157.216,126.61,158.644,129.188,160.32,129.631z M167.52,128.191
		c0.861-1.664,0.094-3.278-1.92-3.36C165.411,126.78,165.775,128.176,167.52,128.191z M189.6,129.151
		c1.925-1.135,1.791-4.719-1.44-4.32C188.135,127.67,188.573,128.186,189.6,129.151z M196.8,128.671
		c1.069-1.42,0.471-4.38-1.92-3.84C194.53,127.101,195.161,128.39,196.8,128.671z M203.04,125.311c-0.006,0.954-1.31,0.61-0.96,1.92
		c0.849,0.432,1.401,1.159,2.4,1.44c0.661-0.619,0.475-2.085,0.479-3.36c-0.841,0.133-2.395-1.352-2.88,0
		C202.4,125.311,202.72,125.311,203.04,125.311z M210.24,127.231c1.814-0.695,0.921,1.319,2.399,0.96
		c0.002-1.922-0.252-3.588-2.399-3.36C210.24,125.631,210.24,126.431,210.24,127.231z M144.48,127.231
		c0.508-1.217-1.011-2.736-1.44-1.44C143.947,125.844,143.373,127.378,144.48,127.231z M173.76,129.631
		c0.797-1.689,1.569-4.468-1.44-4.32C172.282,127.814,171.501,128.918,173.76,129.631z M180.96,128.671
		c1.537-0.064,2.112-1.088,1.92-2.88c-0.907,0.108-1.059-0.541-1.92-0.48C181.123,126.799,179.849,127.604,180.96,128.671z
		 M221.28,126.751c0.22-1.5-1.025-1.534-2.4-1.44C218.342,127.253,220.354,127.685,221.28,126.751z M128.64,127.711
		c1.848,0.378,1.848-2.298,0-1.92C128.64,126.431,128.64,127.071,128.64,127.711z M135.84,128.191c2.237-0.009,2.237-2.391,0-2.4
		C135.84,126.591,135.84,127.391,135.84,128.191z M125.76,128.191c-0.202-0.918-0.174-2.066-1.44-1.92
		C124.186,127.525,124.158,128.673,125.76,128.191z M393.6,131.071c0.837-0.036,1.493,0.107,1.92,0.48
		c0.438-1.894,0.996-4.619-1.439-4.8C393.276,127.547,393.698,129.569,393.6,131.071z M400.8,131.071
		c0.562-1.454,1.457-2.572,0.48-4.32c-0.641,0-1.28,0-1.92,0C398.945,128.598,398.312,131.025,400.8,131.071z M307.2,130.591
		c1.478,0.336,0.922,0.336,2.399,0c0.265-1.755,0.579-2.572-0.96-3.36C308.073,128.264,306.591,128.382,307.2,130.591z
		 M389.28,131.071c2.516-0.018,2.404-4.292-0.48-3.84C388.983,129.481,387.957,129.961,389.28,131.071z M299.04,131.551
		c0.223-2.303-0.394-3.766-2.4-3.84C296.549,129.882,296.247,132.264,299.04,131.551z M287.52,132.031
		c2.905,0.082,2.358-4.837-0.96-3.84C286.281,130.07,286.973,130.978,287.52,132.031z M10.08,136.831
		c0.751-1.674-0.51-3.442-1.92-4.32C7.215,134.321,6.609,137.209,10.08,136.831z M319.68,146.431
		c-0.417-2.783-0.225-6.175-1.439-8.16C318.128,140.496,317.534,145.923,319.68,146.431z M199.2,149.791
		c1.434-0.166,1.911-1.289,2.4-2.4C200.442,147.833,199.643,148.633,199.2,149.791z M351.84,151.231
		c0.733-0.008,1.053-3.557-0.479-2.88C352.05,149.782,349.675,151.276,351.84,151.231z M297.6,150.751c0.32,0,0.641,0,0.96,0
		c0-0.32,0-0.64,0-0.96c-0.319,0-0.64,0-0.96,0C297.6,150.111,297.6,150.431,297.6,150.751z M332.64,160.351
		c0.679-1.401,2.638-1.523,3.841-2.4c-0.865-3.615-2.5-6.46-5.28-8.16C332.04,152.387,330.913,157.508,332.64,160.351z
		 M46.08,153.151c1.098,1.596,3.277,1.579,4.32,2.879c0.253,0.316-1.019,1.199,0.48,0.96c1.927-0.199,1.453-4.918,0-5.76
		C51.689,154.281,46.688,151.519,46.08,153.151z M317.28,154.111c2.511,1.382,2.854-3.746,0.479-2.88
		C317.823,152.415,317.833,153.543,317.28,154.111z M83.04,153.151c0.826,0.025,1.23-0.37,1.44-0.96
		C83.654,152.166,83.25,152.561,83.04,153.151z M84,156.511c0.13-0.989,2.125-0.114,1.92-1.44c-0.999-0.281-1.551-1.009-2.4-1.439
		C82.701,154.406,83.08,156.105,84,156.511z M195.84,154.111c-0.242,2.002,3.338,0.182,2.88,2.4c-2.866,0.015-4.541,1.219-7.2,1.439
		c-1.641-0.385-2.74,0.716-0.48,0.48c2.267,0.453,4.503,0.938,7.2,0.96c0.285-2.275,1.337-3.782,1.92-5.76
		C198.183,153.254,197.697,154.368,195.84,154.111z M306.24,171.391c4.283-1.957,9.132-3.348,13.439-5.28
		c-0.938-3.447-1.183-6.684,0-10.08c-1.328-0.379-7.799,0.406-6.72,2.4c0.381-1.105,2.256,0.248,2.4,0.96
		c-2.079,3.416-12.625,4.244-11.04-1.44c-3.478-0.123-2.067-3.979-4.32-4.319C302.63,159.001,303.82,165.81,306.24,171.391z
		 M77.76,159.391c4.146,10.325,12.77,18.213,22.56,22.56c1.786,0.793,5.326,2.332,5.76,0.961c-0.676-1.572-6.827-1.808-7.2-5.28
		c2.057-2.021,0.771-5.219,2.88-7.681c-1.582,0.483-4.804,0.118-4.8-2.399c-3.304,0.463-9.803,1.156-11.52-1.44
		c1.216-0.096,4.652-0.425,3.84-0.96c-1.695-0.225-4.625,0.785-4.32-1.439c1.303-0.298,3.81,0.609,4.32-0.48
		c-0.854-0.266-1.993-0.246-2.4-0.96c2.43-0.52-2.666-1.324-0.48-3.359C83.298,158.598,81.116,159.169,77.76,159.391z
		 M103.2,159.391c0.59-1.596-3.245-1.174-3.36-0.479C101.355,158.676,101.535,159.776,103.2,159.391z M142.56,159.872
		c2.468-0.572,6.191,0.111,7.68-1.44C147.855,159.086,144.147,158.418,142.56,159.872z M193.44,161.792c1.49,0.63,1.37-0.13,3.36,0
		C196.951,159.81,194.011,161.464,193.44,161.792z M96.96,163.231c-3.544,1.467,3.996,0.13,3.84-0.96
		c-1.614,0.905-1.573-2.173-2.4-0.479C99.877,162.667,96.89,163.26,96.96,163.231z M364.8,161.792
		c-0.268,1.172-1.857,1.022-1.439,2.88c1.855-0.851,4.772-0.45,6.72,0c0.075-0.565-0.083-1.362,0.479-1.44
		c5.771-1.503,12.481,0.727,17.761-1.439C378.898,160.193,374.206,163.16,364.8,161.792z M146.88,162.271
		c-0.168,1.593-2.953,0.566-2.4,2.88c3.412,0.372,5.354-0.726,8.64-0.479C151.959,161.883,149.031,163.711,146.88,162.271z
		 M120.96,162.751c-0.259,3.261-3.392,3.647-7.2,3.359c0.983,1.897,4.341,1.42,4.8,3.84c0.695,1.815-1.319,0.922-0.96,2.4
		c0.562,1.518,3.104,1.056,2.88,3.36c-0.205,2.194-2.6,2.2-3.84,3.359c1.799,0.44,2.919,1.561,3.36,3.36
		c-2.299,0.688-2.878,1.839-4.8,1.92c1.324,0.115,1.464,1.415,1.92,2.4c13.756,1.079,25.739,2.851,41.76,2.88
		c9.046,0.017,21.28,0.643,30.72,0.96c1.302-6.857,2.204-14.116,4.32-20.16c-0.825-0.672-4.81,0.796-6.24-0.48
		c-1.036,4.085-8.9,1.341-12.48,2.881c4.336,1.104,10.894-0.014,13.44,2.88c-7.056,2.303-14.792-0.653-22.08-0.48
		c-5.658,0.135-11.318,2.239-15.36-1.439c-5.371-0.037-9.409,0.025-12.48-0.48c-1.507-0.248-4.248-0.062-4.8-1.92
		c7.388-0.245,19.703,0.586,27.84-0.479c-11.845-2.715-30.582,1.462-39.84-3.841c4,0,8,0,12,0c0.48,0,0.96,0,1.44,0
		c0.373-0.107,0.947-0.013,0.96-0.479c-1.12,0-2.24,0-3.36,0c-2.08,0-4.16,0-6.24,0c-0.619-0.981-2.694-0.507-2.88-1.92
		c0.99-0.291,3.335,0.774,2.88-0.96C125.218,162.973,123.004,162.947,120.96,162.751z M183.84,165.631
		c1.937,2.553,9.692,3.04,12,0.96c-0.347-1.467,0.491-1.749,0.48-2.88C192.634,164.825,189.16,166.152,183.84,165.631z
		 M23.04,166.111c1.113,0.134,1.104,1.282,0.48,1.92c2.466-0.685,4.729,1.323,6.24,0c-2.4-0.306-5.126-0.097-3.84-2.88
		C24.69,165.202,23.632,165.423,23.04,166.111z M97.44,165.151c-0.697,0.263-2.481-0.561-2.4,0.48
		C95.737,165.369,97.521,166.192,97.44,165.151z M161.28,173.792c2.788-2.54,8.78,0.223,12.96-1.44c-0.96,0-1.92,0-2.88,0
		c-3.255-0.153-5.371-0.081-8.64-0.96c-1.567,2.594-7.897,0.423-9.6,2.88C155.161,173.432,158.522,173.914,161.28,173.792z
		 M305.76,216.991c-2.298,2.503-6.667,2.934-9.12,5.28c3.914-0.012,7.603-1.163,12-1.439c2.503-0.157,5.554,0.899,7.681-0.96
		C314.247,217.464,308.663,218.568,305.76,216.991z M283.68,227.551c1.148-0.292,3.482,0.603,3.84-0.48
		C286.629,226.237,284.08,226.453,283.68,227.551z M218.88,269.792C215.12,268.342,216.788,270.811,218.88,269.792L218.88,269.792z
		 M244.8,270.751c0.826,0.025,1.23-0.37,1.44-0.96C245.485,269.837,244.576,269.727,244.8,270.751z M242.88,273.631
		c1.554,0.593,0.367-1.554,1.92-0.96c-0.065-0.895-0.315-1.604-0.96-1.92C244.121,272.436,241.571,272.33,242.88,273.631z
		 M252.96,277.471c0,0.32,0,0.64,0,0.96c0.102,0.538,0.533,0.747,0.96,0.96c1.449-1.617,1.125-2.049,1.92-4.32
		C253.489,274.817,255.468,279.176,252.96,277.471z M250.08,279.391c1.094,0.134,1.805-0.115,1.92-0.96
		C251.106,278.498,250.396,278.747,250.08,279.391z"/>
	<path fill-rule="evenodd" clip-rule="evenodd" fill="#FFFFFF" d="M0,159.872c2.125-0.545,8.24-1.303,9.6,0.479
		c-4.904,1.452-5.825-0.351-9.6,0C0,160.191,0,160.031,0,159.872z"/>
	<path fill-rule="evenodd" clip-rule="evenodd" fill="#FFFFFF" d="M204,147.391c0.143-1.262-1.862-0.378-1.44-1.92
		c8.243-6.797,15.563-14.517,26.4-18.72c1.237-0.115-0.659-0.826,0-1.92c1.461-0.021,1.866,1.014,2.88,1.44
		c8.884-5.783,25.788-2.578,36.48,1.44c1.553,0.593,0.366-1.553,1.92-0.96c0.271,3.217,5.624,3.629,9.12,5.28
		c0.259,0.123,1.581,2.383,3.359,1.92c4.184,4.937,10.815,7.425,14.4,12.96c-2.404,0.972-4.13-2.479-5.28-4.32
		c-6.014-3.106-9.836-8.404-17.28-10.08c0-0.48,0-0.96,0-1.44c-1.894-0.506-4.618-0.181-4.8-2.4
		c-0.557,0.402-1.287,0.633-2.399,0.48c-3.112-2.484-7.188-2.892-12.48-3.36c-3.954-0.35-8.863-2.055-11.52-1.92
		c-3.633,0.186-8.079,2.641-12,4.32c-6.569,2.813-10.766,5.125-15.841,9.12c-4.826,3.8-8.484,7.976-12.959,12.48
		c-0.59,0.594-1.673,2.564-2.88,1.92C200.716,149.867,202.558,148.829,204,147.391z"/>
	<path fill-rule="evenodd" clip-rule="evenodd" fill="#FFFFFF" d="M201.6,147.391c-0.489,1.111-0.966,2.234-2.4,2.4
		C199.643,148.633,200.442,147.833,201.6,147.391z"/>
	<path fill-rule="evenodd" clip-rule="evenodd" fill="#FFFFFF" d="M218.88,269.792C216.788,270.811,215.12,268.342,218.88,269.792
		L218.88,269.792z"/>
	<path fill-rule="evenodd" clip-rule="evenodd" fill="#FFFFFF" d="M163.2,109.951c0,0.8,0,1.6,0,2.4
		c-1.789,0.508-1.55-1.011-2.4-1.44C161.208,110.199,162.008,109.879,163.2,109.951z"/>
	<path fill-rule="evenodd" clip-rule="evenodd" d="M96,257.311c-3.821,0.818-6.807,2.474-11.52,2.4
		c2.622,3.458,8.768,3.392,9.12,9.12c-4.011,2.068-10.862,1.298-15.36,2.88c6.596,0.193,13.835,3.713,15.84,10.08
		c-1.708,3.258-6.516,0.742-11.04,1.439c2.613,2.729,9.06,3.214,9.12,7.681c0.045,3.367-3.798,5.34-9.12,5.279
		c0.096,1.824,2.019,1.822,1.92,3.84c-1.106,0.494-1.548,1.652-3.36,1.44c0.552-3.803-4.703-4.952-7.2-7.2
		c0.883-3.757,5.788-3.492,9.6-4.32c-0.601-2.119-4.273-1.167-5.28-2.88c-0.008-1.928,2.505-1.334,4.32-1.439
		c-3.195-3.569-7.627,1.644-11.04-0.96c0.094-1.854,0.017-3.537-0.48-4.8c1.228-1.013,2.059-2.422,4.32-2.4
		c0.419-1.858-2.096-0.784-1.44-2.88c-2.832-1.328-7.93-0.391-10.56-1.92c-1.175-4.669,5.669-5.359,9.6-6.24
		c4.154-0.931,7.909-1.697,10.56-1.92c-2.703-3.835-9.35-1.664-13.44-3.36c0-1.12,0-2.24,0-3.359
		c-1.685-2.155-6.765-0.916-7.68-3.841c1.287-3.517,12.633-4.706,16.8-4.8C87.028,248.987,95.886,250.285,96,257.311z"/>
</g>
</svg>
